<?xml version="1.0" encoding="UTF-8"?>
<svg version="1.1" xmlns="http://www.w3.org/2000/svg" width="1024" height="1024">
<path d="M0 0 C337.92 0 675.84 0 1024 0 C1024 337.92 1024 675.84 1024 1024 C686.08 1024 348.16 1024 0 1024 C0 686.08 0 348.16 0 0 Z " fill="#FDFEFE" transform="translate(0,0)"/>
<path d="M0 0 C41.62327966 -0.0458322 83.2465564 -0.08104698 124.86985632 -0.10213066 C129.78994657 -0.10463191 134.71003678 -0.10722057 139.63012695 -0.10986328 C141.09930643 -0.11065021 141.09930643 -0.11065021 142.59816629 -0.11145304 C158.43291251 -0.12014273 174.26764413 -0.13590477 190.1023817 -0.15430559 C206.36447133 -0.17304465 222.62655335 -0.18412518 238.88865334 -0.18817699 C248.91372693 -0.19091375 258.93875923 -0.19954054 268.96382011 -0.21583293 C275.84933057 -0.22644932 282.73481986 -0.22959015 289.6203379 -0.22700275 C293.585919 -0.22572867 297.55142824 -0.22760607 301.51699638 -0.23841095 C339.45785861 -0.33646699 339.45785861 -0.33646699 357.7421875 4.796875 C358.75877441 5.08208008 358.75877441 5.08208008 359.79589844 5.37304688 C360.52325195 5.57994141 361.25060547 5.78683594 362 6 C362.82532227 6.23267578 363.65064453 6.46535156 364.50097656 6.70507812 C367.15012849 7.45804672 369.79456608 8.22550311 372.4375 9 C373.25387939 9.23686523 374.07025879 9.47373047 374.91137695 9.71777344 C380.49649457 11.39461698 385.71676484 13.54265182 391 16 C392.03769531 16.45503906 393.07539062 16.91007812 394.14453125 17.37890625 C395.02496094 17.76949219 395.90539062 18.16007812 396.8125 18.5625 C397.70582031 18.95566406 398.59914063 19.34882813 399.51953125 19.75390625 C402 21 402 21 404.02734375 22.5390625 C406.20861927 24.15450219 408.19324773 24.92089372 410.75 25.8125 C415.17399188 27.502491 418.56241779 29.63636865 422.2109375 32.6328125 C424.05539856 34.04233515 425.89747096 35.02746454 428 36 C428 36.66 428 37.32 428 38 C428.78375 38.309375 429.5675 38.61875 430.375 38.9375 C433 40 433 40 435 41 C435 41.66 435 42.32 435 43 C435.52722656 43.22042969 436.05445313 43.44085938 436.59765625 43.66796875 C439.88115763 45.48857683 442.61186761 47.8665583 445.4375 50.3125 C446.35414429 51.10285645 446.35414429 51.10285645 447.28930664 51.90917969 C453.84199152 57.63003177 459.98261794 63.72347521 466 70 C466.66515625 70.68320312 467.3303125 71.36640625 468.015625 72.0703125 C502.7918108 109.6090925 511.83365615 163.21522353 510.20068359 212.34814453 C509.83125496 221.69272457 508.86021755 230.83446021 507 240 C506.81775879 240.89895996 506.63551758 241.79791992 506.44775391 242.72412109 C503.0543829 258.90854471 498.29630307 274.12056131 491 289 C490.46503906 290.13179687 489.93007813 291.26359375 489.37890625 292.4296875 C479.74245283 312.41475718 466.38793824 329.14301174 451 345 C450.43772705 345.5870874 449.8754541 346.1741748 449.29614258 346.77905273 C432.63669372 363.88155951 411.51765868 375.26911365 390 385 C388.92234375 385.50402344 387.8446875 386.00804687 386.734375 386.52734375 C358.84240912 398.99903707 328.38138717 401.17069331 298.296875 401.09765625 C296.26383491 401.09618333 294.23079445 401.09516478 292.19775391 401.09460449 C284.71516343 401.0893922 277.23258111 401.07543099 269.75 401.0625 C253.0025 401.041875 236.255 401.02125 219 401 C219 445.22 219 489.44 219 535 C170.82 535 122.64 535 73 535 C73 523.45 73 511.9 73 500 C58.48 500 43.96 500 29 500 C29 496.7 29 493.4 29 490 C43.52 490 58.04 490 73 490 C73 473.83 73 457.66 73 441 C66.4 441 59.8 441 53 441 C50.36 440.67 47.72 440.34 45 440 C44.9175 440.5775 44.835 441.155 44.75 441.75 C43.48798552 445.53604343 41.09418046 447.42411555 37.625 449.25 C33.00960562 450.56868411 30.18926439 450.61841749 25.875 448.375 C21.6294575 444.86781272 19.2566278 442.05302241 18.5625 436.5 C19.18916868 431.48665054 20.76752441 428.41921432 24.0625 424.625 C28.35804992 422.24873834 32.19586594 422.34993566 37 423 C40.41666635 424.41123175 41.67697202 425.5203098 43.73925781 428.58276367 C45.79849787 431.25877698 45.79849787 431.25877698 48.93261719 431.56762695 C50.5979248 431.52835083 50.5979248 431.52835083 52.296875 431.48828125 C53.38323242 431.47579346 54.46958984 431.46330566 55.58886719 431.45043945 C56.96204102 431.40491943 58.33521484 431.35939941 59.75 431.3125 C64.1225 431.209375 68.495 431.10625 73 431 C73 414.5 73 398 73 381 C48.58 381 24.16 381 -1 381 C-1 377.7 -1 374.4 -1 371 C23.42 371 47.84 371 73 371 C73 354.83 73 338.66 73 322 C38.68 322 4.36 322 -31 322 C-31 318.7 -31 315.4 -31 312 C3.32 312 37.64 312 73 312 C73 294.84 73 277.68 73 260 C58.15 260 43.3 260 28 260 C28 256.7 28 253.4 28 250 C42.85 250 57.7 250 73 250 C73 232.51 73 215.02 73 197 C54.52 197 36.04 197 17 197 C17 193.7 17 190.4 17 187 C35.48 187 53.96 187 73 187 C73 170.83 73 154.66 73 138 C99.89072839 137.83956476 99.89072839 137.83956476 111.41796875 137.8046875 C119.26101608 137.78084419 127.1038753 137.75274088 134.94677734 137.69824219 C141.27510505 137.65454682 147.60323083 137.63081291 153.93169785 137.62049103 C156.33724009 137.61314206 158.74277221 137.59879206 161.14822769 137.57707977 C178.75164106 137.4246117 194.50597827 137.47238081 208.18359375 150 C213.42118424 155.38174436 215.9964241 160.81202996 218 168 C218.17678 168.62058918 218.35356001 169.24117836 218.53569698 169.88057327 C219.02614233 172.11933317 219.12304759 174.10097499 219.12025452 176.39129639 C219.12231651 177.69953117 219.12231651 177.69953117 219.12442017 179.03419495 C219.12082489 179.98293991 219.11722961 180.93168488 219.11352539 181.90917969 C219.11367142 182.91438156 219.11381744 183.91958344 219.1139679 184.95524597 C219.11327128 188.27747761 219.10549058 191.59965316 219.09765625 194.921875 C219.09579118 197.22544321 219.0943677 199.52901182 219.09336853 201.83258057 C219.08955037 207.89557999 219.07972604 213.95855545 219.06866455 220.02154541 C219.05843538 226.20837073 219.05386768 232.39519991 219.04882812 238.58203125 C219.03810317 250.72136469 219.02103513 262.86068035 219 275 C229.18908787 274.93845319 239.37792668 274.86110993 249.56674385 274.76428509 C254.29919821 274.71979404 259.03157069 274.68049271 263.76416016 274.65356445 C268.34199891 274.62731722 272.91951883 274.58676825 277.49715805 274.53681374 C279.23276643 274.5202884 280.96842976 274.50868583 282.70410538 274.50238609 C301.72031448 274.42646631 320.37087975 271.72184019 336 260 C337.0828125 258.90171875 337.0828125 258.90171875 338.1875 257.78125 C340 256 340 256 342 256 C342.27328125 255.4121875 342.5465625 254.824375 342.828125 254.21875 C343.9655716 252.06518444 345.21442675 250.3823156 346.75 248.5 C358.01984766 233.54683627 360.57629766 216.64987492 360.75 198.5 C360.77826632 196.98304065 360.80820784 195.46611157 360.83984375 193.94921875 C360.91242039 190.29962133 360.96275357 186.65014995 361 183 C360.34 183 359.68 183 359 183 C359 183.66 359 184.32 359 185 C356.77911754 186.61815634 354.57229862 188.10415176 352.25 189.5625 C351.61578125 189.97435547 350.9815625 190.38621094 350.328125 190.81054688 C347.24478007 192.77296745 344.57085342 194.24898718 341 195 C343.69920288 191.40731098 346.44928138 188.67979607 350 185.9375 C372.30766368 168.00797592 390.21619627 143.96201173 394 115 C394.87380542 102.40411539 394.26434377 91.09503899 390.09375 79.140625 C389 76 389 76 389 74 C393.63742057 76.06715209 397.37238649 79.30306687 401.34375 82.41796875 C403.79615095 84.20199693 403.79615095 84.20199693 406.171875 83.9296875 C408.27101135 82.86217799 409.32251417 81.80116206 410.75 79.9375 C411.86375 78.4834375 411.86375 78.4834375 413 77 C412.48050781 76.77441406 411.96101563 76.54882812 411.42578125 76.31640625 C408.1039761 74.51375193 405.1910462 72.21511476 402.1875 69.9375 C395.7475848 65.12171595 389.09829858 60.90267239 382.14453125 56.875 C379 55 379 55 376.82421875 53.3125 C374.85790641 51.89776564 373.33880445 51.51832145 371 51 C371.05671875 52.22074219 371.1134375 53.44148438 371.171875 54.69921875 C371.16699067 60.94505941 369.70918341 66.76881489 368.25 72.8125 C367.99734375 73.91142578 367.7446875 75.01035156 367.484375 76.14257812 C365.73066427 83.58269589 363.53741201 90.79085091 361 98 C362.27875 98.144375 363.5575 98.28875 364.875 98.4375 C367.25692894 98.70642746 368.84452691 98.92226346 371 100 C371.18175781 99.26136719 371.36351562 98.52273438 371.55078125 97.76171875 C373.27237517 90.81354225 375.08554151 83.89748164 377 77 C377.66 77 378.32 77 379 77 C379.65134925 78.56020867 380.29582964 80.12328579 380.9375 81.6875 C381.29714844 82.55761719 381.65679688 83.42773438 382.02734375 84.32421875 C384.35079137 90.71603249 384.18340473 96.96716384 384.1875 103.6875 C384.19974609 104.72583984 384.21199219 105.76417969 384.22460938 106.83398438 C384.26565646 128.65735049 374.30102827 147.28203013 359.34375 162.6484375 C358.5703125 163.42445313 357.796875 164.20046875 357 165 C353.99711636 162.41967783 352.61287011 159.45941551 350.875 155.9375 C343.16966357 141.42954437 331.20020633 131.91472464 316 126 C315.06542969 125.63003906 314.13085938 125.26007813 313.16796875 124.87890625 C298.63576065 119.56793863 283.62200384 119.70674115 268.36547852 119.72875977 C266.33013706 119.72436298 264.2947974 119.7190574 262.25946045 119.71292114 C257.9053443 119.70149509 253.55127634 119.69596721 249.19714546 119.69503975 C242.29829184 119.69308448 235.39953669 119.67495266 228.50071716 119.65428162 C211.37009391 119.60529532 194.23944418 119.5742389 177.10876465 119.55297852 C163.78021173 119.53641462 150.4517443 119.51349973 137.12324852 119.46995777 C130.27927512 119.4483033 123.43546465 119.44011202 116.59145939 119.44235051 C112.31866669 119.44067253 108.04597865 119.42655607 103.77322388 119.40913773 C101.80778204 119.40358426 99.84231808 119.40300993 97.87687492 119.40807533 C71.47844491 119.46892546 47.30112329 113.78894415 27 96 C25.96746094 95.11054688 25.96746094 95.11054688 24.9140625 94.203125 C8.95274559 79.44048407 1.22510729 58.23307385 0 37 C-0.16241846 30.58866749 -0.1011287 24.1743503 -0.06640625 17.76171875 C-0.06106473 16.03300115 -0.05621896 14.30428193 -0.05187988 12.57556152 C-0.04029568 8.38366728 -0.02202493 4.19185186 0 0 Z " fill="#2193B8" transform="translate(288,249)"/>
<path d="M0 0 C36.3 0 72.6 0 110 0 C110 0.33 110 0.66 110 1 C74.03 1 38.06 1 1 1 C1 16.84 1 32.68 1 49 C5.186875 48.95875 9.37375 48.9175 13.6875 48.875 C15.65529419 48.87862549 15.65529419 48.87862549 17.6628418 48.88232422 C23.60186173 48.92635286 23.60186173 48.92635286 28.8840332 46.65478516 C30.41340772 44.88060746 30.41340772 44.88060746 32 42 C34.99828631 39.72543797 38.16675925 39.51943389 41.90234375 39.6171875 C45.68202719 40.30696213 48.3285629 42.31376269 51 45 C53.35904217 48.89754794 53.39383683 52.51026018 53 57 C51.18602527 62.13959507 48.91624028 64.63292134 44 67 C39.58331989 67.69327078 36.12850595 67.52823683 32.0625 65.625 C30 64 30 64 28 62 C28 61.01 28 60.02 28 59 C19.09 59 10.18 59 1 59 C1 76.82 1 94.64 1 113 C9.91 113 18.82 113 28 113 C28.33 111.68 28.66 110.36 29 109 C32.41733412 105.14454612 34.75226105 103.63657743 39.9375 103.3125 C44.78012581 103.53926949 47.30659391 105.16454089 50.72265625 108.4921875 C53.73610268 112.04934445 53.38683015 115.74559867 53.3515625 120.23046875 C52.7988962 124.58425102 51.25456215 126.11527446 48 129 C43.76429958 131.49619306 39.8127717 131.9528642 35 131 C32.25480331 129.36690854 30.00655224 127.49044748 28 125 C28 124.34 28 123.68 28 123 C19.09 123 10.18 123 1 123 C1 139.83 1 156.66 1 174 C5.16625 173.979375 9.3325 173.95875 13.625 173.9375 C14.92775879 173.949021 16.23051758 173.96054199 17.57275391 173.97241211 C23.72401913 173.97795962 23.72401913 173.97795962 29.10449219 171.41455078 C30.56622762 169.67601864 31.76465454 167.90010665 33 166 C36.47143564 164.26428218 40.20443818 164.53354207 44 165 C47.99003654 167.06890784 50.60675114 169.2186668 53 173 C53.8349155 177.15370459 53.80449259 181.25374028 52.015625 185.13671875 C49.75519578 188.46457288 47.79569351 190.50003206 44 192 C39.74740108 192.58577838 36.05060699 192.42471347 32.0625 190.8125 C30 189 30 189 28 184 C19.09 184 10.18 184 1 184 C1 187.3 1 190.6 1 194 C0.67 194 0.34 194 0 194 C0 190.7 0 187.4 0 184 C-34.32 184 -68.64 184 -104 184 C-104 180.7 -104 177.4 -104 174 C-69.68 174 -35.36 174 0 174 C0 156.84 0 139.68 0 122 C-14.85 122 -29.7 122 -45 122 C-45 118.7 -45 115.4 -45 112 C-30.15 112 -15.3 112 0 112 C0 94.51 0 77.02 0 59 C-18.48 59 -36.96 59 -56 59 C-56 55.7 -56 52.4 -56 49 C-37.52 49 -19.04 49 0 49 C0 32.83 0 16.66 0 0 Z " fill="#8BC4D4" transform="translate(361,387)"/>
<path d="M0 0 C7.8190594 4.33483419 13.72655098 9.97546992 17.2421875 18.28515625 C18.96455196 28.61934302 18.41116065 37.53412536 12.2890625 46.29296875 C8.65034705 50.7348241 5.00898368 53.51672547 -0.1328125 56.03515625 C1.18516805 60.19748924 1.18516805 60.19748924 2.9921875 64.16015625 C3.8671875 66.03515625 3.8671875 66.03515625 3.8671875 70.03515625 C1.52791718 71.91956845 -0.03684837 73.08517049 -3.1015625 72.9453125 C-6.12755803 71.58943374 -6.87578893 69.56003494 -8.3828125 66.66015625 C-9.16398437 65.19449219 -9.16398437 65.19449219 -9.9609375 63.69921875 C-11.1328125 61.03515625 -11.1328125 61.03515625 -11.1328125 58.03515625 C-11.9784375 57.96039062 -12.8240625 57.885625 -13.6953125 57.80859375 C-23.27356445 56.69838727 -28.64069018 54.16996846 -34.9453125 46.97265625 C-41.28691765 38.45678648 -41.9487409 31.60725706 -41.1328125 21.03515625 C-39.19300048 13.14736642 -34.08235708 6.71581676 -27.43359375 2.203125 C-18.67078374 -2.68801209 -9.40174001 -4.19372221 0 0 Z " fill="#F6F9FA" transform="translate(481.1328125,547.96484375)"/>
<path d="M0 0 C0.33 0 0.66 0 1 0 C1 15.84 1 31.68 1 48 C9.58 48 18.16 48 27 48 C27 48.33 27 48.66 27 49 C18.42 49 9.84 49 1 49 C1 68.47 1 87.94 1 108 C9.58 108 18.16 108 27 108 C27 108.33 27 108.66 27 109 C18.42 109 9.84 109 1 109 C1 125.17 1 141.34 1 158 C9.91 158 18.82 158 28 158 C28 158.33 28 158.66 28 159 C19.09 159 10.18 159 1 159 C1 161.64 1 164.28 1 167 C9.58 167 18.16 167 27 167 C27 167.66 27 168.32 27 169 C26.01604248 169.02187378 26.01604248 169.02187378 25.01220703 169.04418945 C22.04919969 169.11851414 19.08733883 169.21522369 16.125 169.3125 C15.09246094 169.33505859 14.05992187 169.35761719 12.99609375 169.38085938 C12.00996094 169.41630859 11.02382813 169.45175781 10.0078125 169.48828125 C9.09660645 169.51446533 8.18540039 169.54064941 7.24658203 169.56762695 C6.50520996 169.71031006 5.76383789 169.85299316 5 170 C2.77368247 173.3394763 2.76946774 174.33695735 2.83984375 178.21875 C2.85080078 179.23324219 2.86175781 180.24773437 2.87304688 181.29296875 C2.90495117 182.88044922 2.90495117 182.88044922 2.9375 184.5 C2.97192716 186.59368114 3.00206902 188.68743837 3.02734375 190.78125 C3.04531006 191.71001953 3.06327637 192.63878906 3.08178711 193.59570312 C3 196 3 196 2 199 C2.66 199.33 3.32 199.66 4 200 C4.33 200.33 4.66 200.66 5 201 C6.62795508 201.0887156 8.2597922 201.10687355 9.89013672 201.09765625 C11.48297234 201.09276184 11.48297234 201.09276184 13.10798645 201.08776855 C14.2866478 201.07942993 15.46530914 201.07109131 16.6796875 201.0625 C19.25333608 201.05388279 21.8269852 201.04542741 24.40063477 201.03710938 C25.79363071 201.03101186 27.18662592 201.02474229 28.57962036 201.01831055 C35.91372802 200.98558609 43.24785688 200.97365527 50.58203125 200.96875 C51.73770379 200.96792671 51.73770379 200.96792671 52.91672325 200.96708679 C72.46736465 200.95963747 92.01421872 201.21859327 111.5625 201.5 C112.40376183 201.51202454 113.24502365 201.52404907 114.11177826 201.53643799 C124.40796572 201.68377533 134.70403518 201.83780441 145 202 C144.88063254 197.19843426 144.75632666 192.39702938 144.62768555 187.59570312 C144.58470178 185.96650557 144.54300576 184.33727346 144.50268555 182.70800781 C144.22281389 170.70425319 144.22281389 170.70425319 143.19897461 158.74560547 C143 157 143 157 143 155 C143.66 155 144.32 155 145 155 C144.84402344 154.46632813 144.68804687 153.93265625 144.52734375 153.3828125 C144.33269531 152.63773438 144.13804687 151.89265625 143.9375 151.125 C143.74027344 150.40570312 143.54304687 149.68640625 143.33984375 148.9453125 C143.0347031 146.30076016 143.13348252 144.40284851 143.45898438 141.79296875 C144.21374191 134.66590517 144.23224584 127.52598233 144.31640625 120.3671875 C144.3370231 118.87931809 144.35802064 117.39145392 144.37937927 115.90359497 C144.43411219 112.02067346 144.48373285 108.13770348 144.53222656 104.25469971 C144.5828019 100.27913183 144.63829829 96.30363283 144.69335938 92.328125 C144.80034262 84.55214195 144.90191589 76.77610094 145 69 C145.33 69 145.66 69 146 69 C146 113.22 146 157.44 146 203 C97.82 203 49.64 203 0 203 C0 191.45 0 179.9 0 168 C-14.52 168 -29.04 168 -44 168 C-44 164.7 -44 161.4 -44 158 C-29.48 158 -14.96 158 0 158 C0 141.83 0 125.66 0 109 C-6.6 109 -13.2 109 -20 109 C-22.64 108.67 -25.28 108.34 -28 108 C-28.0825 108.5775 -28.165 109.155 -28.25 109.75 C-29.51201448 113.53604343 -31.90581954 115.42411555 -35.375 117.25 C-39.99039438 118.56868411 -42.81073561 118.61841749 -47.125 116.375 C-51.3705425 112.86781272 -53.7433722 110.05302241 -54.4375 104.5 C-53.81083132 99.48665054 -52.23247559 96.41921432 -48.9375 92.625 C-44.64195008 90.24873834 -40.80413406 90.34993566 -36 91 C-32.58333365 92.41123175 -31.32302798 93.5203098 -29.26074219 96.58276367 C-27.20150213 99.25877698 -27.20150213 99.25877698 -24.06738281 99.56762695 C-22.4020752 99.52835083 -22.4020752 99.52835083 -20.703125 99.48828125 C-19.61676758 99.47579346 -18.53041016 99.46330566 -17.41113281 99.45043945 C-15.35137207 99.38215942 -15.35137207 99.38215942 -13.25 99.3125 C-6.69125 99.1578125 -6.69125 99.1578125 0 99 C0 82.5 0 66 0 49 C-24.42 49 -48.84 49 -74 49 C-74 45.7 -74 42.4 -74 39 C-49.58 39 -25.16 39 0 39 C0 26.13 0 13.26 0 0 Z " fill="#84A7C3" transform="translate(361,581)"/>
<path d="M0 0 C5.05903296 2.74538331 8.44934471 7.05056397 10.66015625 12.28125 C11.60247449 19.33767963 10.94503592 25.48018214 6.66015625 31.28125 C2.35846594 35.90114753 -1.89257363 38.08065409 -8.15234375 38.59375 C-13.44656501 38.41428487 -18.16119854 37.32011487 -22.10546875 33.62890625 C-27.33619758 27.62372485 -28.84797106 23.62398758 -28.72265625 15.5859375 C-28.00956437 9.4300627 -25.13039093 5.90523466 -20.65234375 1.84375 C-14.85917007 -2.07055654 -6.62513959 -2.03510131 0 0 Z " fill="#2678AA" transform="translate(478.33984375,557.71875)"/>
<path d="M0 0 C34.32 0 68.64 0 104 0 C104 2.97 104 5.94 104 9 C69.68 9 35.36 9 0 9 C0 6.03 0 3.06 0 0 Z " fill="#2C7FAC" transform="translate(257,561)"/>
<path d="M0 0 C6.04405279 0.26664939 9.55592787 1.16794501 13.9140625 5.484375 C16.87011111 9.07253463 16.54306197 12.74009831 16.5078125 17.22265625 C15.9551462 21.57643852 14.41081215 23.10746196 11.15625 25.9921875 C6.90184053 28.5360612 2.99672105 28.54637381 -1.84375 27.9921875 C-5.25676777 26.58246277 -6.4747802 25.7450805 -8.1027832 22.4230957 C-9.63166014 19.72910512 -9.63166014 19.72910512 -12.57104492 19.33276367 C-13.64459229 19.31705322 -14.71813965 19.30134277 -15.82421875 19.28515625 C-17.56928711 19.24165039 -17.56928711 19.24165039 -19.34960938 19.19726562 C-20.56455078 19.19146484 -21.77949219 19.18566406 -23.03125 19.1796875 C-24.25779297 19.15455078 -25.48433594 19.12941406 -26.74804688 19.10351562 C-29.7802698 19.04452296 -32.81104509 19.00833069 -35.84375 18.9921875 C-35.84375 16.0221875 -35.84375 13.0521875 -35.84375 9.9921875 C-34.71731079 10.00958984 -34.71731079 10.00958984 -33.56811523 10.02734375 C-30.13808728 10.05696997 -26.71122472 10.02511526 -23.28125 9.9921875 C-22.09982422 10.01152344 -20.91839844 10.03085937 -19.70117188 10.05078125 C-13.19657809 10.08818802 -13.19657809 10.08818802 -7.63525391 7.17529297 C-6.47251898 5.75022014 -5.34884289 4.2920558 -4.27368164 2.79980469 C-2.84375 0.9921875 -2.84375 0.9921875 0 0 Z " fill="#F6F8F9" transform="translate(397.84375,670.0078125)"/>
<path d="M0 0 C3.43403788 2.00011167 6.21175747 4.42351494 8 8 C8.49433314 13.03247344 8.81849917 17.48892461 6.375 22 C1.95281831 25.72394247 -2.04194503 27.68985468 -7.96875 27.49609375 C-11.79656225 26.56122422 -14.42847316 23.87712858 -17 21 C-17.33 20.34 -17.66 19.68 -18 19 C-30.87 18.505 -30.87 18.505 -44 18 C-44 15.03 -44 12.06 -44 9 C-42.86570557 9.00954712 -42.86570557 9.00954712 -41.70849609 9.01928711 C-38.2630055 9.02800252 -34.82017999 8.98326488 -31.375 8.9375 C-29.59029297 8.95393555 -29.59029297 8.95393555 -27.76953125 8.97070312 C-21.43910895 9.01501774 -21.43910895 9.01501774 -15.89550781 6.41455078 C-14.43377238 4.67601864 -13.23534546 2.90010665 -12 1 C-8.24289828 -0.87855086 -4.08021262 -0.66379578 0 0 Z " fill="#F6F8F9" transform="translate(406,611)"/>
<path d="M0 0 C3.42483626 2.03388291 6.20607632 4.41215264 8 8 C8.49893401 12.36210879 9.00145931 16.96102884 7.0234375 20.98828125 C4.23150295 24.43966047 1.23171351 26.57098299 -3.11328125 27.40625 C-7.75399241 27.60407783 -10.38935043 27.1773017 -14 24.125 C-15.76650638 22.43209806 -16.90408786 21.19182428 -18 19 C-30.87 18.505 -30.87 18.505 -44 18 C-44 15.03 -44 12.06 -44 9 C-35.09 9 -26.18 9 -17 9 C-16.67 7.68 -16.34 6.36 -16 5 C-11.37930665 -0.21308994 -6.87968299 -1.57342907 0 0 Z " fill="#F7FAFB" transform="translate(406,491)"/>
<path d="M0 0 C3.69322677 2.4518708 6.03745912 4.58105923 6.99609375 9.0546875 C7.47162596 14.28554179 6.92556539 17.66048003 3.99609375 22.0546875 C0.58251509 25.14316343 -2.04096462 26.31900088 -6.56640625 26.4921875 C-10.45426379 26.29616107 -12.97327016 25.63964181 -16.00390625 23.0546875 C-16.41938721 22.20688721 -16.83486816 21.35908691 -17.26293945 20.4855957 C-18.79181639 17.79160512 -18.79181639 17.79160512 -21.73120117 17.39526367 C-22.80474854 17.37955322 -23.8782959 17.36384277 -24.984375 17.34765625 C-26.72944336 17.30415039 -26.72944336 17.30415039 -28.50976562 17.25976562 C-29.72470703 17.25396484 -30.93964844 17.24816406 -32.19140625 17.2421875 C-33.41794922 17.21705078 -34.64449219 17.19191406 -35.90820312 17.16601562 C-38.94042605 17.10702296 -41.97120134 17.07083069 -45.00390625 17.0546875 C-45.00390625 14.0846875 -45.00390625 11.1146875 -45.00390625 8.0546875 C-43.86175659 8.05637939 -43.86175659 8.05637939 -42.6965332 8.05810547 C-39.23559604 8.04597571 -35.77685521 7.98830813 -32.31640625 7.9296875 C-31.11822266 7.93226563 -29.92003906 7.93484375 -28.68554688 7.9375 C-22.56800694 8.01512574 -22.56800694 8.01512574 -17.11987305 5.70947266 C-15.59049853 3.93529496 -15.59049853 3.93529496 -14.00390625 1.0546875 C-9.98520511 -1.99398233 -4.4816042 -2.11412908 0 0 Z " fill="#F5FAFA" transform="translate(407.00390625,427.9453125)"/>
<path d="M0 0 C3.40843187 1.40783056 4.67483332 2.51968992 6.73925781 5.5690918 C8.80136756 8.24546998 8.80136756 8.24546998 11.93261719 8.65942383 C13.04282227 8.67513428 14.15302734 8.69084473 15.296875 8.70703125 C16.50214844 8.73603516 17.70742188 8.76503906 18.94921875 8.79492188 C20.20347656 8.80072266 21.45773437 8.80652344 22.75 8.8125 C24.01972656 8.83763672 25.28945313 8.86277344 26.59765625 8.88867188 C29.73208201 8.94758965 32.86510958 8.9838375 36 9 C36 11.64 36 14.28 36 17 C26.76 17 17.52 17 8 17 C7.67 18.32 7.34 19.64 7 21 C3.59234433 25.1378676 0.33360139 26.70209344 -4.9375 27.375 C-10.17944172 26.73312959 -13.03963277 24.13727699 -16.375 20.1875 C-18.31615304 16.37985365 -18.52821909 14.22575274 -18 10 C-14.61662477 0.9183086 -9.16172745 -1.23970569 0 0 Z " fill="#3363A0" transform="translate(325,672)"/>
<path d="M0 0 C3.99003654 2.06890784 6.60675114 4.2186668 9 8 C9.8349155 12.15370459 9.80449259 16.25374028 8.015625 20.13671875 C5.75519578 23.46457288 3.79569351 25.50003206 0 27 C-4.22699682 27.5822518 -7.92095837 27.44569111 -11.875 25.8125 C-14 24 -14 24 -15.2590332 21.4309082 C-16.78791014 18.73691762 -16.78791014 18.73691762 -19.72729492 18.34057617 C-20.80084229 18.32486572 -21.87438965 18.30915527 -22.98046875 18.29296875 C-24.72553711 18.24946289 -24.72553711 18.24946289 -26.50585938 18.20507812 C-27.72080078 18.19927734 -28.93574219 18.19347656 -30.1875 18.1875 C-31.41404297 18.16236328 -32.64058594 18.13722656 -33.90429688 18.11132812 C-36.9365198 18.05233546 -39.96729509 18.01614319 -43 18 C-43 15.36 -43 12.72 -43 10 C-34.09 10 -25.18 10 -16 10 C-15.67 8.35 -15.34 6.7 -15 5 C-10.53953699 -0.01802088 -6.63902949 -1.29687135 0 0 Z " fill="#F8FAFB" transform="translate(405,552)"/>
<path d="M0 0 C5.11280275 1.84060899 8.10397971 4.40043837 11 9 C11.97347501 13.72347005 11.46451877 17.07096246 9.3125 21.375 C6.40158786 24.67927865 4.33639371 26.69358771 -0.14453125 27.28125 C-4.88298632 27.46984523 -8.2635721 27.18695321 -12 24 C-12.41548096 23.15219971 -12.83096191 22.30439941 -13.2590332 21.4309082 C-14.78791014 18.73691762 -14.78791014 18.73691762 -17.72729492 18.34057617 C-18.80084229 18.32486572 -19.87438965 18.30915527 -20.98046875 18.29296875 C-22.72553711 18.24946289 -22.72553711 18.24946289 -24.50585938 18.20507812 C-25.72080078 18.19927734 -26.93574219 18.19347656 -28.1875 18.1875 C-29.41404297 18.16236328 -30.64058594 18.13722656 -31.90429688 18.11132812 C-34.9365198 18.05233546 -37.96729509 18.01614319 -41 18 C-41 15.36 -41 12.72 -41 10 C-32.09 10 -23.18 10 -14 10 C-13.67 8.35 -13.34 6.7 -13 5 C-8.82504416 0.52683303 -6.30534786 -0.90076398 0 0 Z " fill="#F7F8F9" transform="translate(403,730)"/>
<path d="M0 0 C1.12019531 -0.00128906 2.24039062 -0.00257813 3.39453125 -0.00390625 C4.57402344 -0.00003906 5.75351562 0.00382813 6.96875 0.0078125 C8.73798828 0.00201172 8.73798828 0.00201172 10.54296875 -0.00390625 C12.22326172 -0.00197266 12.22326172 -0.00197266 13.9375 0 C14.97326172 0.00112793 16.00902344 0.00225586 17.07617188 0.00341797 C19.46875 0.1328125 19.46875 0.1328125 20.46875 1.1328125 C20.55633003 3.13246232 20.57571576 5.1351736 20.56640625 7.13671875 C20.56390869 8.23056885 20.56141113 9.32441895 20.55883789 10.45141602 C20.54973389 11.85190186 20.54062988 13.2523877 20.53125 14.6953125 C20.510625 19.1296875 20.49 23.5640625 20.46875 28.1328125 C11.55875 28.1328125 2.64875 28.1328125 -6.53125 28.1328125 C-6.551875 23.6984375 -6.5725 19.2640625 -6.59375 14.6953125 C-6.602854 13.29482666 -6.61195801 11.89434082 -6.62133789 10.45141602 C-6.62383545 9.35756592 -6.62633301 8.26371582 -6.62890625 7.13671875 C-6.63414307 6.01080322 -6.63937988 4.8848877 -6.64477539 3.72485352 C-6.43907104 -0.9718413 -4.15283546 0.00452238 0 0 Z " fill="#385B99" transform="translate(282.53125,730.8671875)"/>
<path d="M0 0 C3.3 0 6.6 0 10 0 C11 1 11 1 11.12025452 3.62586975 C11.1169236 5.3812632 11.1169236 5.3812632 11.11352539 7.17211914 C11.11367142 7.81600082 11.11381744 8.45988251 11.1139679 9.12327576 C11.11326885 11.26060303 11.10547691 13.39784413 11.09765625 15.53515625 C11.09579204 17.01346285 11.09436815 18.49177007 11.09336853 19.97007751 C11.08954359 23.86798802 11.07971352 27.76586149 11.06866455 31.66375732 C11.05844992 35.63846333 11.0538708 39.61317529 11.04882812 43.58789062 C11.03809122 51.391944 11.02101509 59.19596682 11 67 C7.37 67 3.74 67 0 67 C0 44.89 0 22.78 0 0 Z " fill="#EFF5F7" transform="translate(534,553)"/>
<path d="M0 0 C1.07507813 -0.00128906 2.15015625 -0.00257813 3.2578125 -0.00390625 C4.38960938 -0.00003906 5.52140625 0.00382812 6.6875 0.0078125 C7.81929688 0.00394531 8.95109375 0.00007813 10.1171875 -0.00390625 C11.19226563 -0.00261719 12.26734375 -0.00132812 13.375 0 C14.86580078 0.00169189 14.86580078 0.00169189 16.38671875 0.00341797 C18.6875 0.1328125 18.6875 0.1328125 19.6875 1.1328125 C19.77508003 3.13246232 19.79446576 5.1351736 19.78515625 7.13671875 C19.78193359 8.35166016 19.77871094 9.56660156 19.77539062 10.81835938 C19.76701172 12.09775391 19.75863281 13.37714844 19.75 14.6953125 C19.74548828 15.97857422 19.74097656 17.26183594 19.73632812 18.58398438 C19.72449555 21.7669467 19.70655944 24.94988524 19.6875 28.1328125 C11.1075 28.1328125 2.5275 28.1328125 -6.3125 28.1328125 C-6.33932159 23.65360653 -6.35925177 19.17455899 -6.375 14.6953125 C-6.38337891 13.41591797 -6.39175781 12.13652344 -6.40039062 10.81835938 C-6.40361328 9.60341797 -6.40683594 8.38847656 -6.41015625 7.13671875 C-6.41539307 6.01080322 -6.42062988 4.8848877 -6.42602539 3.72485352 C-6.22365636 -0.89568844 -4.09996318 0.00465301 0 0 Z " fill="#3095BA" transform="translate(282.3125,489.8671875)"/>
<path d="M0 0 C7.59 0 15.18 0 23 0 C23 3.96 23 7.92 23 12 C21.02 12 19.04 12 17 12 C17 23.55 17 35.1 17 47 C13.37 47 9.74 47 6 47 C6 35.45 6 23.9 6 12 C4.02 12 2.04 12 0 12 C0 8.04 0 4.08 0 0 Z " fill="#F1F5F8" transform="translate(581,552)"/>
<path d="M0 0 C24.09 0 48.18 0 73 0 C73 2.64 73 5.28 73 8 C48.91 8 24.82 8 0 8 C0 5.36 0 2.72 0 0 Z " fill="#2664A0" transform="translate(288,621)"/>
<path d="M0 0 C16.83 0 33.66 0 51 0 C51 3.63 51 7.26 51 11 C34.17 11 17.34 11 0 11 C0 7.37 0 3.74 0 0 Z " fill="#F3F9FA" transform="translate(706,429)"/>
<path d="M0 0 C4.52388553 1.23378696 6.7943011 3.66815898 9.921875 6.9453125 C13.14475759 10.13184679 16.69548728 12.89034779 20.22265625 15.73046875 C23.56618738 18.46266508 26.78010477 21.31787338 29.984375 24.2109375 C31.80342344 25.82551926 33.66289918 27.35709468 35.5625 28.875 C36.366875 29.57625 37.17125 30.2775 38 31 C38 33 38 33 35.6875 35.5625 C33 38 33 38 30 39 C27.94140625 37.734375 27.94140625 37.734375 25.5625 35.75 C24.67949219 35.01394531 23.79648437 34.27789063 22.88671875 33.51953125 C18.80281046 29.95509168 14.80545975 26.30394679 10.83203125 22.6171875 C5.71127742 17.88490465 0.49603219 13.29377515 -5 9 C-4.42647107 5.12867972 -2.51295648 2.91827204 0 0 Z " fill="#F7F9F9" transform="translate(678,510)"/>
<path d="M0 0 C3.70518888 0.39001988 6.84624345 1.27892565 10.25 2.71875 C17.25753579 5.57201041 24.44232496 7.8859519 31.625 10.25 C33.02483322 10.71325883 34.4245735 11.17679857 35.82421875 11.640625 C39.21508246 12.76365159 42.60718137 13.88289133 46 15 C45.71890887 16.64767247 45.42481474 18.29313145 45.125 19.9375 C44.96257813 20.85402344 44.80015625 21.77054687 44.6328125 22.71484375 C44.42398438 23.46894531 44.21515625 24.22304688 44 25 C42 26 42 26 39.83959961 25.47436523 C38.95280518 25.17216064 38.06601074 24.86995605 37.15234375 24.55859375 C36.16194092 24.22480713 35.17153809 23.89102051 34.15112305 23.54711914 C33.09062744 23.18094482 32.03013184 22.81477051 30.9375 22.4375 C29.86089111 22.07197021 28.78428223 21.70644043 27.67504883 21.32983398 C19.81941981 18.65367642 11.98310884 15.92109045 4.16796875 13.12890625 C2.11915525 12.39881118 0.06339721 11.68779907 -2 11 C-2.19622241 6.78121808 -1.80230168 3.82989106 0 0 Z " fill="#F6F9FA" transform="translate(700,471)"/>
<path d="M0 0 C0.26103516 0.55236328 0.52207031 1.10472656 0.79101562 1.67382812 C2.02554021 4.28340987 3.26260566 6.89177781 4.5 9.5 C4.94980225 10.4502002 5.39960449 11.40040039 5.86303711 12.37939453 C7.98970103 16.85345996 10.13547694 21.30998958 12.41015625 25.7109375 C12.77496094 26.41927734 13.13976562 27.12761719 13.515625 27.85742188 C14.19297305 29.16283333 14.87865182 30.46397008 15.57421875 31.75976562 C17.73591855 35.93329949 18.56946456 39.38796281 19 44 C13.375 48 13.375 48 10 48 C9.62230469 47.18402344 9.24460937 46.36804688 8.85546875 45.52734375 C5.99209711 39.36472422 3.1099221 33.2137586 0.15625 27.09375 C-0.33383545 26.07676025 -0.8239209 25.05977051 -1.32885742 24.01196289 C-2.30515129 21.98884808 -3.28440236 19.96715721 -4.2668457 17.94702148 C-6.47710478 13.36317212 -8.57003173 8.90156754 -10 4 C-3.375 0 -3.375 0 0 0 Z " fill="#F5F8F9" transform="translate(643,541)"/>
<path d="M0 0 C18.48 0 36.96 0 56 0 C56 2.97 56 5.94 56 9 C37.52 9 19.04 9 0 9 C0 6.03 0 3.06 0 0 Z " fill="#28ABC4" transform="translate(305,436)"/>
<path d="M0 0 C3.49996383 2.04164557 5.80555258 4.09089936 7 8 C7.63204691 12.21364605 7.79248708 14.54380499 5.75 18.296875 C3.42698947 21.32969431 1.46914236 23.560274 -2.2578125 24.67578125 C-6.38506623 24.92061834 -9.18556301 24.27318648 -12.4375 21.6875 C-16.26838167 17.66974606 -17.32643281 15.52108486 -17.203125 9.94140625 C-16.96009598 7.61860965 -16.29404803 5.94107204 -15 4 C-14.34 4 -13.68 4 -13 4 C-13 3.34 -13 2.68 -13 2 C-8.7567553 -0.8288298 -4.98265471 -0.65268001 0 0 Z " fill="#2BB4C9" transform="translate(288,429)"/>
<path d="M0 0 C3.22265625 5.17578125 3.22265625 5.17578125 4 7 C3.67 7.99 3.34 8.98 3 10 C0.47418394 11.0824926 -1.95523751 11.97550626 -4.5625 12.8125 C-6.11123877 13.33166073 -7.65940274 13.85253886 -9.20703125 14.375 C-10.00061035 14.64054687 -10.79418945 14.90609375 -11.61181641 15.1796875 C-16.02892003 16.69690976 -20.38007696 18.39120373 -24.73266602 20.08325195 C-31.48513768 22.66495017 -31.48513768 22.66495017 -35 23 C-37.2551922 20.7448078 -37.97723468 18.9952413 -39 16 C-39 15.01 -39 14.02 -39 13 C-37.90042969 12.62488281 -36.80085937 12.24976563 -35.66796875 11.86328125 C-28.01983261 9.22581366 -20.55919623 6.48331698 -13.23046875 3.03515625 C-8.73110655 0.94701092 -4.97744321 -0.29279078 0 0 Z " fill="#F4FAFB" transform="translate(736,380)"/>
<path d="M0 0 C3.94356535 3.39330042 4.54414873 5.7069658 5 10.8125 C4.65920637 14.62938865 4.07538303 16.34823142 1.6875 19.3125 C-1.84624143 22.24045718 -4.91550307 22.84497535 -9.3828125 22.66796875 C-13.23463347 21.95842278 -15.36158605 19.58038527 -17.625 16.5625 C-19.20495937 11.39172388 -19.00019004 7.63875936 -16.5625 2.9375 C-11.87869812 -2.52693552 -6.54347811 -3.33346998 0 0 Z " fill="#2F7FAE" transform="translate(241.3125,555.6875)"/>
<path d="M0 0 C3.76110572 0.02155361 5.955079 0.3286021 8.875 2.75 C12.25118294 6.38588932 12.60339822 8.36552315 12.53125 13.34375 C12.11880509 17.17359558 10.31623334 19.48013144 7.51171875 21.98046875 C3.69425472 24.40113422 -0.33037321 24.15759073 -4.6875 23.375 C-7.75 20.9375 -7.75 20.9375 -9.6875 18.375 C-10.0175 18.045 -10.3475 17.715 -10.6875 17.375 C-11.33356307 11.87423443 -11.73892248 7.72297754 -8.25 3.25 C-7.404375 2.63125 -6.55875 2.0125 -5.6875 1.375 C-4.05531064 -0.25718936 -2.24806873 0.08736889 0 0 Z " fill="#2F71A8" transform="translate(264.6875,612.625)"/>
<path d="M0 0 C4.17489604 0.94850053 7.0456241 2.94431695 9.55859375 6.37109375 C10.86435267 10.81067408 10.67506645 13.56775642 8.49609375 17.68359375 C5.15732696 21.74425607 2.93050707 23.27772958 -2.31640625 23.93359375 C-6.41374735 23.42142611 -7.92903328 22.38346672 -10.81640625 19.49609375 C-13.52373779 15.43509644 -13.69085159 12.26221473 -12.81640625 7.49609375 C-10.03414301 1.68825148 -6.39145599 -0.52813043 0 0 Z " fill="#2CA6C2" transform="translate(613.81640625,441.50390625)"/>
<path d="M0 0 C0.33 0 0.66 0 1 0 C1 44.22 1 88.44 1 134 C-46.85 134 -94.7 134 -144 134 C-144 122.45 -144 110.9 -144 99 C-135.42 99 -126.84 99 -118 99 C-118 99.33 -118 99.66 -118 100 C-118.65597168 100.01458252 -119.31194336 100.02916504 -119.98779297 100.04418945 C-122.95080031 100.11851414 -125.91266117 100.21522369 -128.875 100.3125 C-129.90753906 100.33505859 -130.94007813 100.35761719 -132.00390625 100.38085938 C-132.99003906 100.41630859 -133.97617187 100.45175781 -134.9921875 100.48828125 C-135.90339355 100.51446533 -136.81459961 100.54064941 -137.75341797 100.56762695 C-138.86547607 100.78165161 -138.86547607 100.78165161 -140 101 C-142.22631753 104.3394763 -142.23053226 105.33695735 -142.16015625 109.21875 C-142.14919922 110.23324219 -142.13824219 111.24773437 -142.12695312 112.29296875 C-142.10568359 113.35128906 -142.08441406 114.40960937 -142.0625 115.5 C-142.02807284 117.59368114 -141.99793098 119.68743837 -141.97265625 121.78125 C-141.95468994 122.71001953 -141.93672363 123.63878906 -141.91821289 124.59570312 C-142 127 -142 127 -143 130 C-142.34 130.33 -141.68 130.66 -141 131 C-140.67 131.33 -140.34 131.66 -140 132 C-138.37204492 132.0887156 -136.7402078 132.10687355 -135.10986328 132.09765625 C-133.51702766 132.09276184 -133.51702766 132.09276184 -131.89201355 132.08776855 C-130.7133522 132.07942993 -129.53469086 132.07109131 -128.3203125 132.0625 C-125.74666392 132.05388279 -123.1730148 132.04542741 -120.59936523 132.03710938 C-119.20636929 132.03101186 -117.81337408 132.02474229 -116.42037964 132.01831055 C-109.08627198 131.98558609 -101.75214312 131.97365527 -94.41796875 131.96875 C-93.26229621 131.96792671 -93.26229621 131.96792671 -92.08327675 131.96708679 C-72.53263535 131.95963747 -52.98578128 132.21859327 -33.4375 132.5 C-32.59623817 132.51202454 -31.75497635 132.52404907 -30.88822174 132.53643799 C-20.59203428 132.68377533 -10.29596482 132.83780441 0 133 C-0.11936746 128.19843426 -0.24367334 123.39702938 -0.37231445 118.59570312 C-0.41529822 116.96650557 -0.45699424 115.33727346 -0.49731445 113.70800781 C-0.77718611 101.70425319 -0.77718611 101.70425319 -1.80102539 89.74560547 C-2 88 -2 88 -2 86 C-1.34 86 -0.68 86 0 86 C-0.15597656 85.46632813 -0.31195313 84.93265625 -0.47265625 84.3828125 C-0.76462891 83.26519531 -0.76462891 83.26519531 -1.0625 82.125 C-1.25972656 81.40570312 -1.45695313 80.68640625 -1.66015625 79.9453125 C-1.9652969 77.30076016 -1.86651748 75.40284851 -1.54101562 72.79296875 C-0.78625809 65.66590517 -0.76775416 58.52598233 -0.68359375 51.3671875 C-0.6629769 49.87931809 -0.64197936 48.39145392 -0.62062073 46.90359497 C-0.56588781 43.02067346 -0.51626715 39.13770348 -0.46777344 35.25469971 C-0.4171981 31.27913183 -0.36170171 27.30363283 -0.30664062 23.328125 C-0.19965738 15.55214195 -0.09808411 7.77610094 0 0 Z " fill="#4A5F9C" transform="translate(506,650)"/>
<path d="M0 0 C14.52 0 29.04 0 44 0 C44 2.97 44 5.94 44 9 C29.48 9 14.96 9 0 9 C0 6.03 0 3.06 0 0 Z " fill="#2A90B5" transform="translate(317,500)"/>
<path d="M0 0 C14.52 0 29.04 0 44 0 C44 2.64 44 5.28 44 8 C29.48 8 14.96 8 0 8 C0 5.36 0 2.72 0 0 Z " fill="#2B4D94" transform="translate(317,740)"/>
<path d="M0 0 C3.05992005 1.61656154 5.24119476 3.0762371 7.4375 5.75 C8.32846304 9.31385215 8.04468279 12.52917889 7 16 C4.98867883 18.92555806 3.60820507 20.6328744 0.06640625 21.44140625 C-3.77518465 21.66652783 -5.63508326 21.23292558 -8.9375 19.125 C-12.49505478 15.45964053 -12.40425979 12.43400155 -12.33984375 7.48828125 C-12 5 -12 5 -9.9375 1.875 C-6.21256533 -0.50261787 -4.35125915 -0.68704092 0 0 Z " fill="#F5F6F8" transform="translate(479,660)"/>
<path d="M0 0 C4.37758112 2.34513274 4.37758112 2.34513274 6 5 C7.14033924 10.00436645 6.76661537 13.72230772 4.125 18.125 C-0.2905905 20.7743543 -3.97798697 20.9961698 -9 20 C-12.125 18.0625 -12.125 18.0625 -14 15 C-14.93971476 10.31835797 -14.66873692 7.06997908 -12.125 3 C-8.45483917 -0.45426902 -4.88633345 -0.76009631 0 0 Z " fill="#F6F9FB" transform="translate(464,468)"/>
<path d="M0 0 C3.67080764 2.52368025 4.75864984 4.17035883 6 8.4375 C6 12.55333147 5.29147823 14.60229091 3 18 C0.53663875 19.93549813 -1.23435451 20.03037929 -4.375 20.4375 C-8.00444837 19.99946313 -10.19461646 19.29437967 -12.890625 16.7578125 C-15.20764109 13.0864842 -14.87725118 9.11633246 -14 5 C-10.57081861 -0.53093772 -6.07983203 -1.35474518 0 0 Z " fill="#F8F9F9" transform="translate(480,714)"/>
<path d="M0 0 C8.25 0 16.5 0 25 0 C25 3.96 25 7.92 25 12 C16.75 12 8.5 12 0 12 C0 8.04 0 4.08 0 0 Z " fill="#F2F6F8" transform="translate(581,608)"/>
<path d="M0 0 C4.37859255 0.50522222 6.81651224 3.17827222 10 6 C9.41703883 9.16427896 8.53432863 10.85257346 6.3125 13.1640625 C5.77882813 13.72867188 5.24515625 14.29328125 4.6953125 14.875 C4.13585937 15.4525 3.57640625 16.03 3 16.625 C-0.94126037 20.48721484 -0.94126037 20.48721484 -4 25 C-7 25 -7 25 -8.640625 23.609375 C-9.17171875 22.99578125 -9.7028125 22.3821875 -10.25 21.75 C-10.79140625 21.14671875 -11.3328125 20.5434375 -11.890625 19.921875 C-13 18 -13 18 -12.9453125 16.078125 C-11.64064332 13.21000928 -9.78190278 11.28952787 -7.625 9 C-4.90645773 6.09549882 -2.32078013 3.23411941 0 0 Z " fill="#F6F8F9" transform="translate(726,544)"/>
<path d="M0 0 C2.475 5.445 2.475 5.445 5 11 C3.81921875 11.55429687 2.6384375 12.10859375 1.421875 12.6796875 C-0.13542874 13.41143263 -1.69271974 14.14320489 -3.25 14.875 C-4.41595703 15.42220703 -4.41595703 15.42220703 -5.60546875 15.98046875 C-6.35957031 16.33496094 -7.11367188 16.68945312 -7.890625 17.0546875 C-8.58188477 17.37937012 -9.27314453 17.70405273 -9.98535156 18.03857422 C-12.00299865 19.00143101 -14.00358243 19.99396213 -16 21 C-16.84114171 19.56705502 -17.67265687 18.12845595 -18.5 16.6875 C-18.9640625 15.88699219 -19.428125 15.08648438 -19.90625 14.26171875 C-21 12 -21 12 -21 9 C-17.87797994 7.49373883 -14.75191601 5.99606757 -11.625 4.5 C-10.73554687 4.07074219 -9.84609375 3.64148438 -8.9296875 3.19921875 C-8.07890625 2.79316406 -7.228125 2.38710938 -6.3515625 1.96875 C-5.56604004 1.59169922 -4.78051758 1.21464844 -3.97119141 0.82617188 C-2 0 -2 0 0 0 Z " fill="#F3F7F8" transform="translate(674,591)"/>
<path d="M0 0 C8.57142857 1 8.57142857 1 12 2 C11.28716318 7.12914773 9.93243564 11.93375614 8.4375 16.875 C8.20353516 17.65875 7.96957031 18.4425 7.72851562 19.25 C7.15556462 21.16763195 6.57822809 23.08395266 6 25 C1.88295306 24.27758802 -1.30487372 22.97646289 -5 21 C-3.47512736 13.96212627 -1.77149249 6.9796804 0 0 Z " fill="#EFF6F7" transform="translate(756,485)"/>
<path d="M0 0 C3.96 0 7.92 0 12 0 C12 7.26 12 14.52 12 22 C8.04 22 4.08 22 0 22 C0 14.74 0 7.48 0 0 Z " fill="#F4F9FA" transform="translate(766,423)"/>
<path d="M0 0 C1.17780436 2.91229133 2.34025075 5.83047678 3.5 8.75 C3.83386719 9.575 4.16773438 10.4 4.51171875 11.25 C4.98544922 12.44882812 4.98544922 12.44882812 5.46875 13.671875 C5.90864258 14.77160645 5.90864258 14.77160645 6.35742188 15.89355469 C7 18 7 18 7 22 C2.05 23.485 2.05 23.485 -3 25 C-3.83986084 23.06532058 -4.67168027 21.12714871 -5.5 19.1875 C-5.9640625 18.10855469 -6.428125 17.02960938 -6.90625 15.91796875 C-8 13 -8 13 -8 10 C-8.66 10 -9.32 10 -10 10 C-10.33 8.02 -10.66 6.04 -11 4 C-9.73308493 3.32591692 -8.46129251 2.66099503 -7.1875 2 C-6.47980469 1.62875 -5.77210938 1.2575 -5.04296875 0.875 C-3 0 -3 0 0 0 Z " fill="#F4FAFA" transform="translate(753,365)"/>
<path d="M0 0 C0.33 0 0.66 0 1 0 C1 13.86 1 27.72 1 42 C9.91 42 18.82 42 28 42 C28 42.33 28 42.66 28 43 C19.09 43 10.18 43 1 43 C1 45.64 1 48.28 1 51 C9.58 51 18.16 51 27 51 C27 51.33 27 51.66 27 52 C18.42 52 9.84 52 1 52 C1 63.55 1 75.1 1 87 C0.67 87 0.34 87 0 87 C0 75.45 0 63.9 0 52 C-14.52 52 -29.04 52 -44 52 C-44 51.67 -44 51.34 -44 51 C-29.48 51 -14.96 51 0 51 C0 48.36 0 45.72 0 43 C-14.52 43 -29.04 43 -44 43 C-44 42.67 -44 42.34 -44 42 C-29.48 42 -14.96 42 0 42 C0 28.14 0 14.28 0 0 Z " fill="#8498BC" transform="translate(361,697)"/>
<path d="M0 0 C0.33 0 0.66 0 1 0 C1 43.89 1 87.78 1 133 C0.67 133 0.34 133 0 133 C-0.03758423 131.48817139 -0.03758423 131.48817139 -0.07592773 129.94580078 C-0.17097758 126.16233258 -0.27094904 122.37900694 -0.37231445 118.59570312 C-0.41529822 116.96650557 -0.45699424 115.33727346 -0.49731445 113.70800781 C-0.77718611 101.70425319 -0.77718611 101.70425319 -1.80102539 89.74560547 C-2 88 -2 88 -2 86 C-1.34 86 -0.68 86 0 86 C-0.15597656 85.46632813 -0.31195313 84.93265625 -0.47265625 84.3828125 C-0.66730469 83.63773438 -0.86195313 82.89265625 -1.0625 82.125 C-1.25972656 81.40570312 -1.45695312 80.68640625 -1.66015625 79.9453125 C-1.9652969 77.30076016 -1.86651748 75.40284851 -1.54101562 72.79296875 C-0.78625809 65.66590517 -0.76775416 58.52598233 -0.68359375 51.3671875 C-0.6629769 49.87931809 -0.64197936 48.39145392 -0.62062073 46.90359497 C-0.56588781 43.02067346 -0.51626715 39.13770348 -0.46777344 35.25469971 C-0.4171981 31.27913183 -0.36170171 27.30363283 -0.30664062 23.328125 C-0.19965738 15.55214195 -0.09808411 7.77610094 0 0 Z " fill="#345292" transform="translate(506,650)"/>
<path d="M0 0 C6.6 0 13.2 0 20 0 C20 2.64 20 5.28 20 8 C13.4 8 6.8 8 0 8 C0 5.36 0 2.72 0 0 Z " fill="#2A5C9B" transform="translate(341,681)"/>
<path d="M0 0 C3.63 0 7.26 0 11 0 C11 3.96 11 7.92 11 12 C7.37 12 3.74 12 0 12 C0 8.04 0 4.08 0 0 Z " fill="#EFF4F6" transform="translate(284,739)"/>
<path d="M0 0 C3.63 0 7.26 0 11 0 C11 3.63 11 7.26 11 11 C7.37 11 3.74 11 0 11 C0 7.37 0 3.74 0 0 Z " fill="#EFF9FA" transform="translate(284,499)"/>
<path d="M0 0 C2 2 2 2 2.3125 4.9375 C2 8 2 8 0.8125 9.875 C-1.65507108 11.40659584 -3.14519831 11.42822025 -6 11 C-7.8125 9.875 -7.8125 9.875 -9 8 C-9.375 4.9375 -9.375 4.9375 -9 2 C-5.54754176 -0.30163882 -4.05261287 -0.34490322 0 0 Z " fill="#F1F4F7" transform="translate(324,680)"/>
<path d="M0 0 C2.625 0.25 2.625 0.25 4.4375 1.4375 C6.05025784 3.89907776 6.0584014 5.36065736 5.625 8.25 C4.4375 10.125 4.4375 10.125 2.625 11.25 C-0.71692692 11.00546876 -1.98043557 10.64456443 -4.375 8.25 C-3.68534483 0.38793103 -3.68534483 0.38793103 0 0 Z " fill="#37629A" transform="translate(400.375,678.75)"/>
<path d="M0 0 C2.4375 0.8125 2.4375 0.8125 4.4375 2.8125 C4.80546448 5.68262296 4.81259409 7.22024618 3.25 9.6875 C1.4375 10.8125 1.4375 10.8125 -1.125 10.625 C-3.5625 9.8125 -3.5625 9.8125 -5.5625 7.8125 C-5.93046448 4.94237704 -5.93759409 3.40475382 -4.375 0.9375 C-2.5625 -0.1875 -2.5625 -0.1875 0 0 Z " fill="#2E7EAC" transform="translate(401.5625,560.1875)"/>
<path d="M0 0 C3 0.25 3 0.25 5 2.25 C5.36487512 5.09602594 5.40199375 6.6364306 3.8125 9.0625 C1.36655047 10.66501866 -0.13381787 10.6909511 -3 10.25 C-5.14915785 7.02626323 -5.38286803 5.98296326 -5 2.25 C-3 0.25 -3 0.25 0 0 Z " fill="#2D93B6" transform="translate(401,499.75)"/>
<path d="M0 0 C3 0.25 3 0.25 5 2.25 C5.36796448 5.12012296 5.37509409 6.65774618 3.8125 9.125 C2 10.25 2 10.25 -0.5625 10.0625 C-3 9.25 -3 9.25 -5 7.25 C-5.25 4.75 -5.25 4.75 -5 2.25 C-3 0.25 -3 0.25 0 0 Z " fill="#344F90" transform="translate(401,738.75)"/>
<path d="M0 0 C3 0.25 3 0.25 5 2.25 C5.36796448 5.12012296 5.37509409 6.65774618 3.8125 9.125 C2 10.25 2 10.25 -0.5625 10.0625 C-3 9.25 -3 9.25 -5 7.25 C-5.25 4.75 -5.25 4.75 -5 2.25 C-3 0.25 -3 0.25 0 0 Z " fill="#2F70A6" transform="translate(401,619.75)"/>
<path d="M0 0 C2.5625 0.3125 2.5625 0.3125 4.4375 1.4375 C6.11540631 4.23401052 5.31125648 6.24940532 4.5625 9.3125 C2.2525 9.6425 -0.0575 9.9725 -2.4375 10.3125 C-4.58665785 7.08876323 -4.82036803 6.04546326 -4.4375 2.3125 C-2.4375 0.3125 -2.4375 0.3125 0 0 Z " fill="#29A5BD" transform="translate(400.4375,435.6875)"/>
<path d="M0 0 C8.58 0 17.16 0 26 0 C26 0.33 26 0.66 26 1 C25.01604248 1.02187378 25.01604248 1.02187378 24.01220703 1.04418945 C21.04919969 1.11851414 18.08733883 1.21522369 15.125 1.3125 C14.09246094 1.33505859 13.05992187 1.35761719 11.99609375 1.38085938 C10.51689453 1.4340332 10.51689453 1.4340332 9.0078125 1.48828125 C8.09660645 1.51446533 7.18540039 1.54064941 6.24658203 1.56762695 C5.50520996 1.71031006 4.76383789 1.85299316 4 2 C1.77368247 5.3394763 1.76946774 6.33695735 1.83984375 10.21875 C1.85080078 11.23324219 1.86175781 12.24773438 1.87304688 13.29296875 C1.89431641 14.35128906 1.91558594 15.40960937 1.9375 16.5 C1.97192716 18.59368114 2.00206902 20.68743837 2.02734375 22.78125 C2.04531006 23.71001953 2.06327637 24.63878906 2.08178711 25.59570312 C2 28 2 28 1 31 C1.66 31.33 2.32 31.66 3 32 C3.33 32.66 3.66 33.32 4 34 C2.68 34 1.36 34 0 34 C0 22.78 0 11.56 0 0 Z " fill="#2C478E" transform="translate(362,749)"/>
<path d="M0 0 C7.59 0 15.18 0 23 0 C23 0.33 23 0.66 23 1 C22.39937744 1.02505615 21.79875488 1.0501123 21.17993164 1.07592773 C18.47388563 1.1915528 15.76821717 1.31442936 13.0625 1.4375 C11.64420898 1.49647461 11.64420898 1.49647461 10.19726562 1.55664062 C9.29814453 1.59853516 8.39902344 1.64042969 7.47265625 1.68359375 C6.22367554 1.73858032 6.22367554 1.73858032 4.94946289 1.79467773 C2.99661142 1.79367103 2.99661142 1.79367103 2 3 C1.84126045 5.21687994 1.74866163 7.43855298 1.68359375 9.66015625 C1.66281265 10.32462265 1.64203156 10.98908905 1.62062073 11.6736908 C1.55506342 13.80318543 1.49621215 15.93280668 1.4375 18.0625 C1.39432061 19.50326847 1.35070651 20.94402399 1.30664062 22.38476562 C1.19937607 25.9230404 1.09812629 29.46145869 1 33 C0.67 33 0.34 33 0 33 C0 22.11 0 11.22 0 0 Z " fill="#2B5495" transform="translate(362,690)"/>
<path d="M0 0 C2.64 0.33 5.28 0.66 8 1 C8 3.64 8 6.28 8 9 C5.69 9 3.38 9 1 9 C0.67 6.03 0.34 3.06 0 0 Z " fill="#90AFD2" transform="translate(333,680)"/>
<path d="M0 0 C3.96 0 7.92 0 12 0 C12 0.33 12 0.66 12 1 C11.04287109 1.09087891 11.04287109 1.09087891 10.06640625 1.18359375 C9.24011719 1.26738281 8.41382813 1.35117188 7.5625 1.4375 C6.32693359 1.55931641 6.32693359 1.55931641 5.06640625 1.68359375 C3.01337975 1.78930815 3.01337975 1.78930815 2 3 C1.95073136 4.93687347 1.96391778 6.87533601 2 8.8125 C2.07790107 18.22879146 1.52950191 27.60134107 1 37 C0.67 37 0.34 37 0 37 C0 24.79 0 12.58 0 0 Z " fill="#2CCAD4" transform="translate(288,249)"/>
<path d="M0 0 C4.22915217 -0.02908633 8.45827852 -0.04682792 12.6875 -0.0625 C13.88568359 -0.07087891 15.08386719 -0.07925781 16.31835938 -0.08789062 C18.05375977 -0.09272461 18.05375977 -0.09272461 19.82421875 -0.09765625 C20.88729248 -0.10289307 21.95036621 -0.10812988 23.0456543 -0.11352539 C25.8134509 -0.00716844 28.30792897 0.37105212 31 1 C31 1.33 31 1.66 31 2 C29.0085944 2.38133299 27.00720923 2.71325582 25 3 C24.67 2.67 24.34 2.34 24 2 C22.22130274 1.84235595 20.43681524 1.74899323 18.65234375 1.68359375 C17.57275391 1.64169922 16.49316406 1.59980469 15.38085938 1.55664062 C13.67639648 1.49766602 13.67639648 1.49766602 11.9375 1.4375 C10.79732422 1.39431641 9.65714844 1.35113281 8.48242188 1.30664062 C5.65507805 1.20017161 2.82764262 1.09815793 0 1 C0 0.67 0 0.34 0 0 Z " fill="#56D6DF" transform="translate(591,249)"/>
<path d="M0 0 C0.33 0.99 0.66 1.98 1 3 C-0.43645851 4.60509934 -1.87420706 6.20904424 -3.3125 7.8125 C-4.11300781 8.70582031 -4.91351562 9.59914063 -5.73828125 10.51953125 C-7.45224581 12.39926786 -9.17877604 14.22592747 -11 16 C-11.66 15.67 -12.32 15.34 -13 15 C-12.14535156 14.08476563 -11.29070313 13.16953125 -10.41015625 12.2265625 C-9.29415079 11.02615326 -8.17827192 9.82562632 -7.0625 8.625 C-6.49853516 8.02171875 -5.93457031 7.4184375 -5.35351562 6.796875 C-4.54624023 5.92675781 -4.54624023 5.92675781 -3.72265625 5.0390625 C-3.22515869 4.50490723 -2.72766113 3.97075195 -2.21508789 3.42041016 C-0.89706492 1.9954525 -0.89706492 1.9954525 0 0 Z " fill="#468CB8" transform="translate(736,551)"/>
<path d="M0 0 C0.66 0 1.32 0 2 0 C2.625 2.875 2.625 2.875 3 6 C2.34 6.66 1.68 7.32 1 8 C-0.03842565 10.31648799 -1.0421975 12.64903024 -2 15 C-3.31534494 11.34142468 -2.65468309 8.91973519 -1.5625 5.25 C-1.27503906 4.26515625 -0.98757813 3.2803125 -0.69140625 2.265625 C-0.46324219 1.51796875 -0.23507812 0.7703125 0 0 Z " fill="#3EBCCB" transform="translate(665,326)"/>
<path d="M0 0 C6.625 -0.125 6.625 -0.125 10 1 C10 4.3 10 7.6 10 11 C9.34 10.67 8.68 10.34 8 10 C8.0309375 8.5459375 8.0309375 8.5459375 8.0625 7.0625 C8.35618499 4.12534105 8.35618499 4.12534105 7 3 C4.66702567 2.95907063 2.33294775 2.95758277 0 3 C0 2.01 0 1.02 0 0 Z " fill="#5B84B4" transform="translate(317,678)"/>
<path d="M0 0 C0.66 0.33 1.32 0.66 2 1 C-1.47344745 5.63126326 -4.98631707 10.10908401 -11 11 C-7.81316569 6.66590534 -4.13621084 3.3810038 0 0 Z " fill="#47B4CD" transform="translate(640,433)"/>
<path d="M0 0 C0.66 0.33 1.32 0.66 2 1 C0.88222229 3.31625061 -0.24374092 5.62784605 -1.375 7.9375 C-1.85066406 8.9265332 -1.85066406 8.9265332 -2.3359375 9.93554688 C-4.7734375 14.88671875 -4.7734375 14.88671875 -7 16 C-6.36833847 13.08263542 -5.43307878 10.64806163 -4.0625 8 C-3.72347656 7.34 -3.38445313 6.68 -3.03515625 6 C-2.69355469 5.34 -2.35195313 4.68 -2 4 C-1.33148341 2.66759323 -0.66428253 1.33452274 0 0 Z " fill="#4887B1" transform="translate(777,537)"/>
<path d="M0 0 C0 0.33 0 0.66 0 1 C-0.59167969 1.01417969 -1.18335938 1.02835937 -1.79296875 1.04296875 C-6.35846843 1.31853725 -8.44161431 1.53277932 -12.0625 4.5625 C-13.0215625 5.7690625 -13.0215625 5.7690625 -14 7 C-14.99 6.67 -15.98 6.34 -17 6 C-11.74665536 0.15521921 -7.73477142 -0.8403977 0 0 Z " fill="#CEE1E9" transform="translate(406,491)"/>
<path d="M0 0 C1.23922223 3.71766668 0.57018942 5.43889537 -0.4375 9.1875 C-0.72496094 10.27417969 -1.01242187 11.36085938 -1.30859375 12.48046875 C-1.53675781 13.31191406 -1.76492188 14.14335937 -2 15 C-2.66 14.67 -3.32 14.34 -4 14 C-3.00956295 9.16371695 -2.04301154 4.52381127 0 0 Z " fill="#4CC5D5" transform="translate(654,322)"/>
<path d="M0 0 C0.99 0 1.98 0 3 0 C2.01923848 2.18785263 1.29151474 3.75512761 -0.5625 5.3125 C-2.77817401 7.91350862 -2.6872065 10.6843889 -3 14 C-3.33 14 -3.66 14 -4 14 C-4.33119204 9.19771544 -4.43284049 6.83582992 -2.1875 2.5 C-1.465625 1.675 -0.74375 0.85 0 0 Z " fill="#4190B8" transform="translate(227,556)"/>
<path d="M0 0 C0.99 0.33 1.98 0.66 3 1 C-0.3 3.64 -3.6 6.28 -7 9 C-7.33 8.34 -7.66 7.68 -8 7 C-7.34 7 -6.68 7 -6 7 C-6 6.34 -6 5.68 -6 5 C-5.34 5 -4.68 5 -4 5 C-3.67 4.01 -3.34 3.02 -3 2 C-2.01 1.34 -1.02 0.68 0 0 Z " fill="#4B80AF" transform="translate(732,597)"/>
<path d="M0 0 C0.66 0.33 1.32 0.66 2 1 C-0.31 4.63 -2.62 8.26 -5 12 C-5.33 11.01 -5.66 10.02 -6 9 C-4.78515625 6.73828125 -4.78515625 6.73828125 -3.0625 4.3125 C-2.49660156 3.50425781 -1.93070313 2.69601562 -1.34765625 1.86328125 C-0.90292969 1.24839844 -0.45820312 0.63351562 0 0 Z " fill="#3FB4CB" transform="translate(661,390)"/>
<path d="M0 0 C0.66 0.33 1.32 0.66 2 1 C1.34 1.66 0.68 2.32 0 3 C-0.144375 3.66 -0.28875 4.32 -0.4375 5 C-1 7 -1 7 -4 9 C-4.99 8.67 -5.98 8.34 -7 8 C-4.69 5.36 -2.38 2.72 0 0 Z " fill="#24A1C0" transform="translate(644,430)"/>
<path d="M0 0 C-1.43554025 0.50559908 -2.8735202 1.0042749 -4.3125 1.5 C-5.51326172 1.91765625 -5.51326172 1.91765625 -6.73828125 2.34375 C-9 3 -9 3 -12 3 C-12 2.34 -12 1.68 -12 1 C-3.96428571 -1.27678571 -3.96428571 -1.27678571 0 0 Z " fill="#4678AD" transform="translate(661,640)"/>
<path d="M0 0 C1.32 0.33 2.64 0.66 4 1 C3.01 2.485 3.01 2.485 2 4 C1.54605448 6.27912938 1.54605448 6.27912938 1.375 8.6875 C1.30023438 9.49574219 1.22546875 10.30398438 1.1484375 11.13671875 C1.09945313 11.75160156 1.05046875 12.36648438 1 13 C0.67 13 0.34 13 0 13 C0 8.71 0 4.42 0 0 Z " fill="#27448B" transform="translate(362,750)"/>
<path d="M0 0 C0.99 0.33 1.98 0.66 3 1 C0.69 3.31 -1.62 5.62 -4 8 C-4.66 7.67 -5.32 7.34 -6 7 C-4.02 4.69 -2.04 2.38 0 0 Z " fill="#D9E5EB" transform="translate(726,544)"/>
<path d="M0 0 C1.32 0.33 2.64 0.66 4 1 C3.34 1.66 2.68 2.32 2 3 C1.53993654 5.20250992 1.53993654 5.20250992 1.375 7.625 C1.30023438 8.44226563 1.22546875 9.25953125 1.1484375 10.1015625 C1.07496094 11.04128906 1.07496094 11.04128906 1 12 C0.67 12 0.34 12 0 12 C0 8.04 0 4.08 0 0 Z " fill="#2563A0" transform="translate(362,630)"/>
</svg>
