<?xml version="1.0" encoding="UTF-8"?>
<svg version="1.1" xmlns="http://www.w3.org/2000/svg" width="1024" height="1024">
<path d="M0 0 C337.92 0 675.84 0 1024 0 C1024 337.92 1024 675.84 1024 1024 C686.08 1024 348.16 1024 0 1024 C0 686.08 0 348.16 0 0 Z " fill="#F9F9F9" transform="translate(0,0)"/>
<path d="M0 0 C10.87533345 -0.0697813 21.75061285 -0.12295337 32.62612534 -0.15543652 C37.67710071 -0.17103372 42.72792192 -0.19216233 47.77880859 -0.22631836 C52.66122179 -0.25912517 57.54348751 -0.27689763 62.4260025 -0.28463173 C64.28055388 -0.29013721 66.13509799 -0.30088712 67.98958588 -0.31719017 C86.65882091 -0.47465523 102.72675688 2.14397044 116.80859375 15.5703125 C125.47916719 25.18367557 129.17699515 36.09112909 129.1875 48.8125 C129.19974609 49.58142578 129.21199219 50.35035156 129.22460938 51.14257812 C129.25798514 64.32600559 123.8020167 76.34247192 115.10546875 86.1328125 C103.65266802 97.30938613 88.60711342 100.24700413 73.18701172 100.18017578 C71.05256592 100.15286377 71.05256592 100.15286377 68.875 100.125 C64.29625 100.08375 59.7175 100.0425 55 100 C55 110.56 55 121.12 55 132 C42.79 132 30.58 132 18 132 C18 129.03 18 126.06 18 123 C15.03 123 12.06 123 9 123 C9 122.01 9 121.02 9 120 C11.97 120 14.94 120 18 120 C18 116.37 18 112.74 18 109 C16.68 109 15.36 109 14 109 C14 108.34 14 107.68 14 107 C15.32 107 16.64 107 18 107 C18 103.04 18 99.08 18 95 C5.625 95.495 5.625 95.495 -7 96 C-7.495 93.525 -7.495 93.525 -8 91 C-6.34385343 90.61781233 -4.67542976 90.28604898 -3 90 C-2.67 90.33 -2.34 90.66 -2 91 C-0.5112814 91.08669432 0.981445 91.10703494 2.47265625 91.09765625 C3.82133789 91.09282227 3.82133789 91.09282227 5.19726562 91.08789062 C6.14279297 91.07951172 7.08832031 91.07113281 8.0625 91.0625 C9.4865918 91.05573242 9.4865918 91.05573242 10.93945312 91.04882812 C13.29299531 91.03700128 15.64650532 91.01906521 18 91 C18.33 87.37 18.66 83.74 19 80 C10.42 80 1.84 80 -7 80 C-6.67 79.01 -6.34 78.02 -6 77 C2.25 77 10.5 77 19 77 C19 73.04 19 69.08 19 65 C26.42857143 64.85714286 26.42857143 64.85714286 30 66 C30.33 64.35 30.66 62.7 31 61 C29.35 61 27.7 61 26 61 C26 61.66 26 62.32 26 63 C23.69 63 21.38 63 19 63 C19 58.71 19 54.42 19 50 C22.63 50 26.26 50 30 50 C30 49.01 30 48.02 30 47 C28.68 46.67 27.36 46.34 26 46 C26 46.66 26 47.32 26 48 C25.3294458 48.05534912 24.6588916 48.11069824 23.96801758 48.16772461 C20.91592263 48.42134011 17.86421686 48.67937638 14.8125 48.9375 C13.22985352 49.06801758 13.22985352 49.06801758 11.61523438 49.20117188 C10.08286133 49.33168945 10.08286133 49.33168945 8.51953125 49.46484375 C7.58214111 49.543396 6.64475098 49.62194824 5.67895508 49.70288086 C3.07434165 49.99175487 0.56002256 50.44576831 -2 51 C-2.33 49.35 -2.66 47.7 -3 46 C0.75 44.875 0.75 44.875 3 46 C3 46.66 3 47.32 3 48 C3.99 47.505 3.99 47.505 5 47 C7.2072923 46.92907158 9.41667452 46.91584975 11.625 46.9375 C12.81351563 46.94652344 14.00203125 46.95554687 15.2265625 46.96484375 C16.14179688 46.97644531 17.05703125 46.98804688 18 47 C18 43.04 18 39.08 18 35 C22.32326033 34.9007989 26.64591024 34.82837735 30.9699707 34.78027344 C32.43948921 34.76021175 33.90892841 34.73295522 35.37817383 34.69824219 C37.49580487 34.64947859 39.61237687 34.62697839 41.73046875 34.609375 C43.63928833 34.5779541 43.63928833 34.5779541 45.58666992 34.54589844 C49.57731488 35.07680464 51.17915793 36.18928487 54 39 C55.40912096 41.81824192 55.11183553 44.17251282 55.09765625 47.3203125 C55.09443359 48.57714844 55.09121094 49.83398438 55.08789062 51.12890625 C55.07532227 53.10697266 55.07532227 53.10697266 55.0625 55.125 C55.05748489 56.46484211 55.05292201 57.804686 55.04882812 59.14453125 C55.03701086 62.42973206 55.02053617 65.71484397 55 69 C58.48033199 68.94748036 61.95830244 68.85226395 65.4375 68.75 C66.41138672 68.73582031 67.38527344 68.72164063 68.38867188 68.70703125 C74.91025104 68.48891823 80.40259227 67.51852188 86 64 C89.81649696 59.51561607 90.12916816 56.4440883 90.3125 50.625 C90.61622704 43.50793655 93.27167197 40.06441017 98 35 C99.50156874 31.99686252 99.09281204 29.20932478 99.0625 25.875 C99.05347656 24.59367187 99.04445313 23.31234375 99.03515625 21.9921875 C99.02355469 21.00476563 99.01195312 20.01734375 99 19 C100.65 19.66 102.3 20.32 104 21 C100.75255007 17.56698151 98.14054132 15.48432479 94 13 C93.34 16.96 92.68 20.92 92 25 C92.66 25 93.32 25 94 25 C94.33 23.35 94.66 21.7 95 20 C95.66 20 96.32 20 97 20 C98.45359643 26.893789 98.09918958 31.13074658 94.421875 37.1875 C93 39 93 39 90 41 C89.360625 40.0925 88.72125 39.185 88.0625 38.25 C84.04522148 33.52665146 79.07736338 31.35133825 72.94018555 30.65066528 C69.39168766 30.52563978 65.86293474 30.52493771 62.3125 30.56640625 C60.32938934 30.55925753 58.34627832 30.55208012 56.36317444 30.54325008 C52.21111626 30.53076927 48.05910303 30.55145086 43.90710449 30.57373047 C40.47781725 30.59177618 37.04918175 30.60058905 33.61987305 30.58348083 C31.0588386 30.57236068 28.49759917 30.5822501 25.93676758 30.61634827 C18.4383786 30.57325741 13.04101998 29.62489129 7 25 C4.84375 22.68359375 4.84375 22.68359375 3.5 20.4375 C3.0359375 19.69371094 2.571875 18.94992187 2.09375 18.18359375 C0.01027325 14.02408125 -0.11279631 10.37726068 -0.0625 5.75 C-0.05347656 4.67234375 -0.04445312 3.5946875 -0.03515625 2.484375 C-0.02355469 1.66453125 -0.01195312 0.8446875 0 0 Z " fill="#1A9BC1" transform="translate(175,413)"/>
<path d="M0 0 C21 0 21 0 29 4 C33.90984545 9.16825837 35.23981334 13.0857423 35.4140625 20.171875 C35.43342865 20.8542926 35.4527948 21.53671021 35.4727478 22.23980713 C35.53231098 24.40974608 35.57883446 26.57973877 35.625 28.75 C35.66320131 30.22528297 35.7022543 31.70054415 35.7421875 33.17578125 C35.83799235 36.78365418 35.92210916 40.39169083 36 44 C37.051875 43.18595703 37.051875 43.18595703 38.125 42.35546875 C46.96413853 35.69008576 53.28245018 32.42167771 64.375 32.5625 C65.21135986 32.57007324 66.04771973 32.57764648 66.90942383 32.58544922 C73.27868312 32.75529613 78.47608535 33.65850154 84 37 C84.71285156 37.4125 85.42570312 37.825 86.16015625 38.25 C94.26791429 43.58445015 97.9258108 51.54943474 100.35871887 60.67210388 C101.58705629 67.04649905 101.36435729 73.48611924 101.29296875 79.94921875 C101.28736001 81.4580696 101.28309597 82.96692599 101.28010559 84.4757843 C101.26875718 88.40985719 101.23937885 92.34358751 101.20599365 96.27752686 C101.16961978 101.01753411 101.15608385 105.75765715 101.13863373 110.49776459 C101.10973326 117.66541323 101.05217782 124.83231311 101 132 C89.12 132 77.24 132 65 132 C64.97421875 128.1225 64.9484375 124.245 64.921875 120.25 C64.88342464 116.48023323 64.83827375 112.71060185 64.79248047 108.94091797 C64.76431526 106.32802837 64.74307871 103.71505427 64.72900391 101.10205078 C64.70751387 97.33842854 64.66082857 93.57581752 64.609375 89.8125 C64.60814636 88.65073242 64.60691772 87.48896484 64.60565186 86.29199219 C64.48238706 79.41233104 63.68995406 74.85575926 60 69 C56.32011617 65.53657992 52.30566443 65.43313966 47.44140625 65.578125 C43.38373994 66.27928974 41.75260426 67.97213532 39 71 C36.95680188 74.26615384 36.73189123 76.86419436 36.68115234 80.68652344 C36.66128265 81.82740417 36.64141296 82.96828491 36.62094116 84.14373779 C36.60938995 85.36989807 36.59783875 86.59605835 36.5859375 87.859375 C36.56657135 89.11888977 36.5472052 90.37840454 36.5272522 91.67608643 C36.47761586 95.0166095 36.43633723 98.35702325 36.39910889 101.69769287 C36.35902661 105.10976007 36.30805946 108.52166359 36.2578125 111.93359375 C36.16010724 118.62233324 36.08053997 125.31094354 36 132 C24.12 132 12.24 132 0 132 C0 88.44 0 44.88 0 0 Z " fill="#2078AF" transform="translate(310,413)"/>
<path d="M0 0 C0.85078125 -0.00773437 1.7015625 -0.01546875 2.578125 -0.0234375 C15.39608745 0.0158814 27.82663115 4.46777699 37.61328125 12.8203125 C46.47636994 21.8429658 53.45730091 33.39039112 54 46.25 C54.05994141 47.56677734 54.05994141 47.56677734 54.12109375 48.91015625 C54.42958767 62.10280816 50.00755459 75.41983769 41 85.25 C29.56609838 97.23054233 15.30378283 102.12439815 -1.0625 102.6875 C-14.69868877 102.33668083 -28.16188935 96.58709475 -38.15625 87.2890625 C-49.9309149 74.2670814 -52.96921356 59.64808191 -52.22216797 42.72021484 C-51.34828774 33.00381905 -46.04403086 24.63997051 -40 17.25 C-39.42765625 16.54101562 -38.8553125 15.83203125 -38.265625 15.1015625 C-28.46172192 4.16643983 -14.27992219 -0.12981747 0 0 Z " fill="#295DA1" transform="translate(470,445.75)"/>
<path d="M0 0 C5.4836558 4.99621973 9.55703219 11.68668854 11 19 C11.08813797 21.38376246 11.11763813 23.76988566 11.11352539 26.15527344 C11.11367142 26.86786819 11.11381744 27.58046295 11.1139679 28.31465149 C11.11327291 30.66292395 11.10549994 33.01111645 11.09765625 35.359375 C11.0957906 36.99033566 11.09436739 38.62129688 11.09336853 40.2522583 C11.08955494 44.53974969 11.07973454 48.82720708 11.06866455 53.11468506 C11.05662452 58.26173703 11.05204267 63.40880039 11.04621124 68.55586243 C11.03652217 76.37059859 11.01735752 84.18526016 11 92 C-0.55 92 -12.1 92 -24 92 C-24.01417969 87.81054688 -24.02835938 83.62109375 -24.04296875 79.3046875 C-24.06823115 75.95429825 -24.09846113 72.60403537 -24.13204193 69.25372314 C-24.16607817 65.72244716 -24.19145496 62.19160467 -24.19555664 58.66015625 C-24.20067234 54.60364746 -24.24582654 50.5484272 -24.29296875 46.4921875 C-24.2890361 45.23260223 -24.28510345 43.97301697 -24.28105164 42.67526245 C-24.24648579 35.47291864 -24.24648579 35.47291864 -27.35668945 29.21923828 C-31.52288839 25.72143203 -35.23869455 25.59494096 -40.48828125 25.65625 C-44.70909548 26.2339042 -46.21464748 27.7968446 -49 31 C-51.78529205 36.89182512 -51.35118355 43.23692006 -51.4140625 49.6171875 C-51.43342865 50.82948029 -51.4527948 52.04177307 -51.4727478 53.290802 C-51.53239315 57.15213039 -51.57886945 61.01348883 -51.625 64.875 C-51.66319356 67.49740863 -51.70224609 70.11980491 -51.7421875 72.7421875 C-51.83969442 79.16139301 -51.91938464 85.58047129 -52 92 C-63.88 92 -75.76 92 -88 92 C-88 59.99 -88 27.98 -88 -5 C-78.1 -5 -68.2 -5 -58 -5 C-55 3 -55 3 -55 7 C-54.32517578 6.34644531 -54.32517578 6.34644531 -53.63671875 5.6796875 C-38.59697525 -8.24488463 -17.51764351 -12.49371556 0 0 Z " fill="#315399" transform="translate(619,453)"/>
<path d="M0 0 C0.89912109 -0.00773437 1.79824219 -0.01546875 2.72460938 -0.0234375 C16.42371323 0.01618391 28.59434324 4.34238693 38.65234375 13.92578125 C50.88313079 27.89376261 50.6875 40.68063302 50.6875 59.25 C29.2375 59.25 7.7875 59.25 -14.3125 59.25 C-10.89452085 66.72606197 -10.89452085 66.72606197 -5.3125 71.25 C1.87618256 73.64622752 8.87650032 72.74500365 15.6171875 69.515625 C18.15619516 67.96347692 20.39904683 66.14774166 22.6875 64.25 C26.20184888 66.3098286 29.69609144 68.40156011 33.1875 70.5 C34.18910156 71.08652344 35.19070313 71.67304687 36.22265625 72.27734375 C37.17011719 72.85097656 38.11757813 73.42460938 39.09375 74.015625 C39.97353516 74.53930664 40.85332031 75.06298828 41.75976562 75.60253906 C42.39591797 76.14620117 43.03207031 76.68986328 43.6875 77.25 C43.6875 82.38817757 42.1650501 83.53969058 38.80078125 87.16015625 C27.05588559 98.77479429 14.7009077 101.58377479 -1.31689453 101.63500977 C-13.89886646 101.45290487 -24.06305255 98.08796333 -33.3125 89.25 C-34.00988281 88.59257813 -34.70726562 87.93515625 -35.42578125 87.2578125 C-46.30715166 76.06905874 -49.76717204 62.02482063 -49.74633789 46.90478516 C-49.42932515 32.58001855 -42.72965391 21.21794758 -32.5625 11.4375 C-27.60624404 7.16121819 -22.42794475 4.50258246 -16.3125 2.25 C-15.42691406 1.88261719 -14.54132812 1.51523437 -13.62890625 1.13671875 C-9.05201901 -0.08701906 -4.71600269 -0.04005098 0 0 Z " fill="#38428E" transform="translate(686.3125,445.75)"/>
<path d="M0 0 C11.88 0 23.76 0 36 0 C42.89563191 17.23907977 42.89563191 17.23907977 45.4296875 24.55859375 C45.84977585 25.75863792 45.84977585 25.75863792 46.27835083 26.98292542 C47.147038 29.46670163 48.01112786 31.95204559 48.875 34.4375 C49.47364977 36.15180049 50.07260646 37.86599384 50.671875 39.58007812 C52.11811031 43.71883038 53.56023424 47.85899295 55 52 C58.14454565 46.00456277 60.6130838 39.96406799 62.890625 33.59375 C63.24010193 32.6284436 63.58957886 31.66313721 63.949646 30.6685791 C65.05433707 27.6140145 66.15226841 24.55707164 67.25 21.5 C68.00215716 19.41650524 68.75475694 17.33317021 69.5078125 15.25 C71.34449651 10.16877728 73.17200127 5.08438718 75 0 C86.55 0 98.1 0 110 0 C106.62567756 10.12296732 106.62567756 10.12296732 105.18164062 13.61645508 C104.85658539 14.40736038 104.53153015 15.19826569 104.19662476 16.01313782 C103.85330109 16.84024765 103.50997742 17.66735748 103.15625 18.51953125 C102.79077057 19.40758957 102.42529114 20.29564789 102.04873657 21.21061707 C101.27035653 23.10175834 100.49075676 24.99239799 99.71002197 26.88256836 C97.66181214 31.84207731 95.62281225 36.80535777 93.5859375 41.76953125 C92.98384964 43.23690231 92.98384964 43.23690231 92.36959839 44.73391724 C89.20680399 52.45892854 86.14146396 60.21679227 83.125 68 C79.6841375 76.81836371 76.18378696 85.60990949 72.5223999 94.33911133 C71.77974909 96.11630906 71.04999841 97.89888074 70.32080078 99.68164062 C64.9820702 112.27098226 57.10764343 122.78669519 44.2734375 128.2734375 C32.7982903 131.94075259 18.74181549 131.46224971 8 126 C6.32247683 125.01832094 4.65280572 124.0227468 3 123 C3.59677743 117.40295112 5.60141614 112.76843025 7.875 107.6875 C8.22691406 106.86443359 8.57882812 106.04136719 8.94140625 105.19335938 C9.28816406 104.41154297 9.63492188 103.62972656 9.9921875 102.82421875 C10.30526855 102.11354248 10.61834961 101.40286621 10.94091797 100.6706543 C12 99 12 99 15 98 C15.99 98.66 16.98 99.32 18 100 C22.9509951 100.59013409 27.5348119 100.64468277 32.125 98.625 C34.63118565 96.45297244 34.94932995 95.42982183 35.33984375 92.1171875 C35.23308192 86.41639803 32.69534675 81.32184674 30.5625 76.125 C30.08458008 74.93479248 29.60666016 73.74458496 29.11425781 72.51831055 C27.43098121 68.33666852 25.71711587 64.16783937 24 60 C23.66434021 59.18432556 23.32868042 58.36865112 22.98284912 57.52825928 C19.01556251 47.89126553 15.02494304 38.26410804 11.015625 28.64453125 C10.34175015 27.02557283 9.66792148 25.40659519 8.99414062 23.78759766 C7.64284469 20.54071998 6.28636768 17.29605938 4.92773438 14.05224609 C4.27978093 12.49713988 3.63198733 10.94196705 2.984375 9.38671875 C2.68227112 8.66893753 2.38016724 7.95115631 2.06890869 7.21162415 C0 2.22719578 0 2.22719578 0 0 Z " fill="#433381" transform="translate(784,448)"/>
<path d="M0 0 C24.74772727 0 24.74772727 0 29.86328125 4.71875 C30.34152344 5.3065625 30.81976562 5.894375 31.3125 6.5 C32.04919922 7.38171875 32.04919922 7.38171875 32.80078125 8.28125 C34.9832302 11.40918986 35.12417476 14.15154819 35.12025452 17.84049988 C35.12162918 18.83749405 35.12300385 19.83448822 35.12442017 20.86169434 C35.11902725 22.50059631 35.11902725 22.50059631 35.11352539 24.17260742 C35.11367142 25.32396683 35.11381744 26.47532623 35.1139679 27.66157532 C35.11326991 31.47622547 35.10548279 35.2908271 35.09765625 39.10546875 C35.09579167 41.74676995 35.09436795 44.3880715 35.09336853 47.02937317 C35.09025948 53.27665829 35.08205182 59.52392592 35.07201904 65.77120334 C35.0608447 72.88358981 35.05534412 79.99597712 35.05032361 87.10837018 C35.03986886 101.73892376 35.02152865 116.36945841 35 131 C23.45 131 11.9 131 0 131 C0 87.77 0 44.54 0 0 Z " fill="#39468E" transform="translate(745,414)"/>
<path d="M0 0 C5.63553852 2.57716278 9.2241096 5.94096171 11.9765625 11.58203125 C13.93315376 17.56287791 14.12296689 24.93841799 11.92578125 30.8671875 C9.1853722 35.44315356 5.67866583 38.91262021 0.87109375 41.31640625 C-4.68421873 41.82370275 -9.54720861 42.07901047 -14.62890625 39.62890625 C-20.03226813 34.63079651 -22.73843495 30.3119265 -23.46484375 22.87890625 C-23.59621052 10.89825678 -23.59621052 10.89825678 -19.12890625 6.31640625 C-13.2190232 0.77506824 -8.39091458 -2.69433037 0 0 Z " fill="#F6F7F7" transform="translate(476.12890625,475.68359375)"/>
<path d="M0 0 C2.97 0 5.94 0 9 0 C9.33 0.66 9.66 1.32 10 2 C10.66 1.34 11.32 0.68 12 0 C16.26234157 -0.81039035 20.36898917 -0.95288447 24.1796875 1.2734375 C27.49027511 4.0894975 29.82880961 6.12532496 30.23828125 10.609375 C30.35482581 15.54105002 30.42019526 19.09735834 28.3125 23.625 C24.56557121 27.47319714 21.60694824 28.09736618 16.375 28.25 C12.84975609 28.2740631 12.09768723 28.06512482 9 26 C9 29.96 9 33.92 9 38 C6.03 38 3.06 38 0 38 C0 25.46 0 12.92 0 0 Z " fill="#275697" transform="translate(405,588)"/>
<path d="M0 0 C-0.66 2.31 -1.32 4.62 -2 7 C-2.804375 6.835 -3.60875 6.67 -4.4375 6.5 C-8.65887352 5.90752652 -12.74664545 5.91493291 -17 6 C-17.66 7.32 -18.32 8.64 -19 10 C-18.20335937 10.18175781 -17.40671875 10.36351562 -16.5859375 10.55078125 C-3.40160107 13.6784523 -3.40160107 13.6784523 0.875 17.8125 C2.42388547 20.82422174 2.46964169 22.64541648 2 26 C0.32032184 29.23493572 -0.89762008 31.4087235 -4.1484375 33.15234375 C-7.76571273 34.22761598 -11.19867989 34.32985757 -14.9375 34.3125 C-15.97293945 34.33666992 -15.97293945 34.33666992 -17.02929688 34.36132812 C-21.76655571 34.36581842 -24.94235553 33.40664672 -29 31 C-28.1875 28.0625 -28.1875 28.0625 -27 25 C-26.01 24.67 -25.02 24.34 -24 24 C-23.40703125 24.30679688 -22.8140625 24.61359375 -22.203125 24.9296875 C-19.28104192 26.34928105 -16.97979338 26.1952129 -13.75 26.125 C-12.13351562 26.09792969 -12.13351562 26.09792969 -10.484375 26.0703125 C-9.66453125 26.04710937 -8.8446875 26.02390625 -8 26 C-8.33 24.68 -8.66 23.36 -9 22 C-9.95261719 21.76925781 -10.90523438 21.53851562 -11.88671875 21.30078125 C-13.14097656 20.97464844 -14.39523437 20.64851562 -15.6875 20.3125 C-16.92886719 19.99925781 -18.17023438 19.68601562 -19.44921875 19.36328125 C-23.41480668 17.84073979 -25.35879505 16.30026735 -28 13 C-28.61966758 9.09609426 -28.91769743 6.70429523 -27.04296875 3.22265625 C-20.33956623 -5.48112671 -9.05684668 -4.52842334 0 0 Z " fill="#2E5D9D" transform="translate(497,582)"/>
<path d="M0 0 C0.93065133 2.60582371 1.14917407 3.64198224 0.0625 6.25 C-0.4634375 7.11625 -0.4634375 7.11625 -1 8 C-1.61875 7.835 -2.2375 7.67 -2.875 7.5 C-7.25470729 6.79924683 -11.57428989 6.92265749 -16 7 C-16 8.32 -16 9.64 -16 11 C-14.96359375 11.31453125 -13.9271875 11.6290625 -12.859375 11.953125 C-11.48937869 12.38476767 -10.11959814 12.8170956 -8.75 13.25 C-8.06808594 13.45496094 -7.38617188 13.65992188 -6.68359375 13.87109375 C-2.52493646 15.2034791 0.33463792 16.48656816 3 20 C3.63312105 24.2735671 3.27864635 26.45302754 1.3125 30.3125 C-1.89094052 34.03541736 -4.44334124 34.85831829 -9.3046875 35.30078125 C-15.94676269 35.32258237 -21.16762832 35.33278382 -27 32 C-26.125 27.25 -26.125 27.25 -25 25 C-24.030625 25.33 -23.06125 25.66 -22.0625 26 C-17.37766639 27.34808477 -11.48037043 28.24018522 -7 26 C-6.67 25.01 -6.34 24.02 -6 23 C-6.86882812 22.82984375 -7.73765625 22.6596875 -8.6328125 22.484375 C-22.64093669 19.53859497 -22.64093669 19.53859497 -27 13 C-27.44168875 9.02480125 -27.42963703 6.75616118 -25.4375 3.25 C-17.90995173 -3.69850609 -9.07023012 -3.08773791 0 0 Z " fill="#188DB7" transform="translate(329,581)"/>
<path d="M0 0 C1.2890625 0.00386719 2.578125 0.00773438 3.90625 0.01171875 C7.23323966 0.29017332 9.51825509 0.87323467 12.5 2.3125 C11.625 7.0625 11.625 7.0625 10.5 9.3125 C9.675 9.1475 8.85 8.9825 8 8.8125 C4.08727683 8.25353955 0.44816827 8.24442813 -3.5 8.3125 C-3.83 9.6325 -4.16 10.9525 -4.5 12.3125 C-3.46359375 12.62703125 -2.4271875 12.9415625 -1.359375 13.265625 C0.01062131 13.69726767 1.38040186 14.1295956 2.75 14.5625 C3.43191406 14.76746094 4.11382813 14.97242188 4.81640625 15.18359375 C8.97308864 16.51534636 11.84241677 17.79372525 14.5 21.3125 C14.98084494 25.09056741 14.81792076 27.53536036 13.375 31.0625 C10.19253581 34.88145702 6.73865018 36.17751889 1.84375 36.7109375 C0.5753125 36.70320312 -0.693125 36.69546875 -2 36.6875 C-3.2684375 36.69523438 -4.536875 36.70296875 -5.84375 36.7109375 C-9.70218216 36.29046733 -12.17046621 35.25472805 -15.5 33.3125 C-14.51 29.8475 -14.51 29.8475 -13.5 26.3125 C-12.55125 26.6425 -11.6025 26.9725 -10.625 27.3125 C-5.94552744 28.6769458 -1.33176241 28.48749341 3.5 28.3125 C4.16 26.9925 4.82 25.6725 5.5 24.3125 C4.63117187 24.14234375 3.76234375 23.9721875 2.8671875 23.796875 C-11.14093669 20.85109497 -11.14093669 20.85109497 -15.5 14.3125 C-16.00371498 9.67832219 -15.38147398 6.98886336 -12.5 3.3125 C-8.34125835 0.1612495 -5.15151156 -0.06696965 0 0 Z " fill="#403782" transform="translate(645.5,579.6875)"/>
<path d="M0 0 C3.93779248 1.24351342 5.38997076 2.07043164 7.640625 5.5 C9.42242726 10.08762882 9.33042688 14.00815643 9.1875 18.875 C9.16719727 20.19371094 9.16719727 20.19371094 9.14648438 21.5390625 C9.11136623 23.69297552 9.05756694 25.84657004 9 28 C6.03 28 3.06 28 0 28 C-0.33 27.34 -0.66 26.68 -1 26 C-1.99 26.66 -2.98 27.32 -4 28 C-8.43568016 28.71436048 -12.01919005 28.48039671 -16.0625 26.5 C-18.40291038 23.48011564 -18.59139361 21.72064723 -18.6640625 18 C-17.60342502 14.80560947 -15.82648355 13.7287829 -13 12 C-9.66796875 11.609375 -9.66796875 11.609375 -6.1875 11.75 C-5.02605469 11.78609375 -3.86460937 11.8221875 -2.66796875 11.859375 C-1.78753906 11.90578125 -0.90710938 11.9521875 0 12 C-1.23516878 9.93559276 -1.23516878 9.93559276 -3 8 C-5.81042578 7.82156027 -8.23034418 7.80862263 -11 8 C-12.32 8 -13.64 8 -15 8 C-15.66 6.35 -16.32 4.7 -17 3 C-11.44676133 -0.85160407 -6.55627112 -0.63963621 0 0 Z " fill="#384B92" transform="translate(551,588)"/>
<path d="M0 0 C1.010625 -0.01675781 2.02125 -0.03351562 3.0625 -0.05078125 C7.2568845 0.46793917 9.80289748 1.98995422 12.6262207 5.10913086 C14.26914969 7.74418224 14.34933307 9.21562555 14.29296875 12.296875 C14.28330078 13.23144531 14.27363281 14.16601562 14.26367188 15.12890625 C14.23853516 16.09699219 14.21339844 17.06507813 14.1875 18.0625 C14.16719727 19.53783203 14.16719727 19.53783203 14.14648438 21.04296875 C14.11118726 23.46670415 14.06188054 25.88932145 14 28.3125 C9.66666667 28.3125 5.33333333 28.3125 1 28.3125 C0.27941406 28.37050781 -0.44117188 28.42851563 -1.18359375 28.48828125 C-5.441482 28.7465587 -7.42681113 28.69852515 -11.0625 26.25 C-13.50272587 22.55030272 -13.79082445 20.6620345 -13 16.3125 C-10.23691755 13.43705561 -8.66220446 12.39013241 -4.66796875 11.921875 C-2.94513672 11.99148438 -2.94513672 11.99148438 -1.1875 12.0625 C-0.02605469 12.09859375 1.13539063 12.1346875 2.33203125 12.171875 C3.21246094 12.21828125 4.09289062 12.2646875 5 12.3125 C4.34 10.9925 3.68 9.6725 3 8.3125 C-3.08408472 8.11435739 -3.08408472 8.11435739 -9 9.3125 C-10.4606285 6.66511084 -11 5.41801666 -11 2.3125 C-7.20947276 0.56356188 -4.16690915 0.01594481 0 0 Z " fill="#2564A0" transform="translate(384,587.6875)"/>
<path d="M0 0 C5.14540735 1.74749684 8.0326877 4.46175766 11 9 C11 11.31 11 13.62 11 16 C4.07 16 -2.86 16 -10 16 C-6.5177457 20.33907065 -6.5177457 20.33907065 -2.4375 20.3125 C0.97912402 20.13420273 0.97912402 20.13420273 4 19 C5.65 20.65 7.3 22.3 9 24 C3.36281613 28.47086997 -1.98050595 28.73308021 -9 28 C-14.14853681 25.4257316 -17.182008 22.45397599 -19 17 C-19.54030113 11.27280804 -18.6516353 8.44117806 -15 4 C-10.64839704 -0.86355625 -6.13893706 -0.79944357 0 0 Z " fill="#42317E" transform="translate(682,588)"/>
<path d="M0 0 C2.97 0 5.94 0 9 0 C9 0.66 9 1.32 9 2 C9.99 1.34 10.98 0.68 12 0 C16.20925614 -0.60695266 19.93951362 -0.43802698 23.875 1.1875 C26.96403369 3.82226403 28.80275135 6.11989837 29.23925781 10.28051758 C29.29506074 12.96387733 29.26144481 15.62963067 29.1875 18.3125 C29.16719727 19.70952148 29.16719727 19.70952148 29.14648438 21.13476562 C29.1112742 23.42342712 29.05747134 25.71178929 29 28 C26.03 28 23.06 28 20 28 C19.93941406 26.71222656 19.87882813 25.42445313 19.81640625 24.09765625 C19.73201753 22.41925841 19.6473687 20.74087364 19.5625 19.0625 C19.52318359 18.21236328 19.48386719 17.36222656 19.44335938 16.48632812 C19.40146484 15.67744141 19.35957031 14.86855469 19.31640625 14.03515625 C19.27974854 13.2862915 19.24309082 12.53742676 19.20532227 11.76586914 C19.18228937 9.97538674 19.18228937 9.97538674 18 9 C15.04182893 8.74994614 15.04182893 8.74994614 12 9 C8.97906785 12.02093215 9.53323166 15.56372072 9.375 19.625 C9.31699219 20.82769531 9.31699219 20.82769531 9.2578125 22.0546875 C9.16346069 24.03607556 9.08063785 26.01800645 9 28 C6.03 28 3.06 28 0 28 C0 18.76 0 9.52 0 0 Z " fill="#38428B" transform="translate(567,588)"/>
<path d="M0 0 C2.64 0 5.28 0 8 0 C8 0.99 8 1.98 8 3 C8.639375 2.505 9.27875 2.01 9.9375 1.5 C14.04805849 -0.51333477 17.50059232 -0.86983277 22 0 C25.06765423 1.72196807 27.40321354 3.80642707 29 7 C29.08400529 8.59447464 29.10727467 10.19240545 29.09765625 11.7890625 C29.09443359 12.73007812 29.09121094 13.67109375 29.08789062 14.640625 C29.07951172 15.62546875 29.07113281 16.6103125 29.0625 17.625 C29.05798828 18.61757813 29.05347656 19.61015625 29.04882812 20.6328125 C29.03702145 23.0886016 29.020554 25.54427104 29 28 C26.03 28 23.06 28 20 28 C19.93941406 26.71222656 19.87882812 25.42445313 19.81640625 24.09765625 C19.73201753 22.41925841 19.6473687 20.74087364 19.5625 19.0625 C19.52318359 18.21236328 19.48386719 17.36222656 19.44335938 16.48632812 C19.40146484 15.67744141 19.35957031 14.86855469 19.31640625 14.03515625 C19.27974854 13.2862915 19.24309082 12.53742676 19.20532227 11.76586914 C19.18228937 9.97538674 19.18228937 9.97538674 18 9 C15.36 9 12.72 9 10 9 C9.67 15.27 9.34 21.54 9 28 C6.03 28 3.06 28 0 28 C0 18.76 0 9.52 0 0 Z " fill="#1E7BAD" transform="translate(337,588)"/>
<path d="M0 0 C3.72197309 3.1404148 3.72197309 3.1404148 5 4.6875 C5 5.3475 5 6.0075 5 6.6875 C1.535 8.1725 1.535 8.1725 -2 9.6875 C-2.53625 9.171875 -3.0725 8.65625 -3.625 8.125 C-5.99337614 6.38477159 -5.99337614 6.38477159 -9.1875 6.875 C-10.115625 7.143125 -11.04375 7.41125 -12 7.6875 C-13.38550197 10.45850394 -13.1877467 12.6209706 -13 15.6875 C-12.34 16.6775 -11.68 17.6675 -11 18.6875 C-8 19.10416667 -8 19.10416667 -5 18.6875 C-4.34 18.0275 -3.68 17.3675 -3 16.6875 C-0.0574037 16.99402045 2.34542308 17.36021154 5 18.6875 C3.70989008 21.56543751 2.42638194 23.64933917 0 25.6875 C-5.13559585 27.39936528 -11.15891818 27.94461585 -16.20703125 25.7109375 C-19.50373018 23.44836097 -21.51507912 21.45850839 -23 17.6875 C-23.70439351 12.72398296 -23.53310707 8.77345884 -21.3125 4.25 C-15.59222193 -2.08868651 -7.94605924 -3.47640092 0 0 Z " fill="#305396" transform="translate(525,589.3125)"/>
<path d="M0 0 C4.90547807 2.27754339 7.4357862 5.26606683 10 10 C10 11.32 10 12.64 10 14 C-0.56 14 -11.12 14 -22 14 C-21.03424887 9.17124433 -20.6645617 8.12937698 -17.5625 4.75 C-16.94503906 4.06421875 -16.32757812 3.3784375 -15.69140625 2.671875 C-11.5036925 -1.46748178 -5.50932097 -0.51199187 0 0 Z " fill="#F7F7F8" transform="translate(694,473)"/>
<path d="M0 0 C2.97 0 5.94 0 9 0 C9 12.54 9 25.08 9 38 C6.03 38 3.06 38 0 38 C0 25.46 0 12.92 0 0 Z " fill="#46317E" transform="translate(714,578)"/>
<path d="M0 0 C2.97 0 5.94 0 9 0 C9 12.54 9 25.08 9 38 C6.03 38 3.06 38 0 38 C0 25.46 0 12.92 0 0 Z " fill="#43317E" transform="translate(698,578)"/>
<path d="M0 0 C5.0404499 0.58805249 6.42322773 1.62388301 9.75 5.4375 C10.53768041 9.76974227 10.05842997 11.83206339 8.0625 15.75 C4.85905948 19.47291736 2.30665876 20.29581829 -2.5546875 20.73828125 C-9.19676269 20.76008237 -14.41762832 20.77028382 -20.25 17.4375 C-19.375 12.6875 -19.375 12.6875 -18.25 10.4375 C-17.280625 10.7675 -16.31125 11.0975 -15.3125 11.4375 C-10.62766639 12.78558477 -4.73037043 13.67768522 -0.25 11.4375 C0.08 10.4475 0.41 9.4575 0.75 8.4375 C-1.23 7.7775 -3.21 7.1175 -5.25 6.4375 C-5.25 1.47039373 -4.91536541 0.6616838 0 0 Z " fill="#187AAB" transform="translate(322.25,595.5625)"/>
<path d="M0 0 C2.56695636 0.39491636 4.67123994 0.83561997 7 2 C7 2.66 7 3.32 7 4 C13.27 4 19.54 4 26 4 C26 7.96 26 11.92 26 16 C31.94 15.505 31.94 15.505 38 15 C38.495 16.98 38.495 16.98 39 19 C33.85910687 20.85072153 31.04468729 21.21474076 26 19 C26 22.63 26 26.26 26 30 C27.65 29.34 29.3 28.68 31 28 C33.23828125 27.8046875 33.23828125 27.8046875 35.3125 27.875 C36.529375 27.91625 37.74625 27.9575 39 28 C39.6875 29.8125 39.6875 29.8125 40 32 C38.875 33.6875 38.875 33.6875 37 35 C34.30078125 34.85546875 34.30078125 34.85546875 31.3125 34.1875 C30.31863281 33.97480469 29.32476562 33.76210938 28.30078125 33.54296875 C27.54152344 33.36378906 26.78226563 33.18460938 26 33 C26 35.97 26 38.94 26 42 C25.67 42 25.34 42 25 42 C25 39.03 25 36.06 25 33 C22.03 33 19.06 33 16 33 C16 32.01 16 31.02 16 30 C18.97 30 21.94 30 25 30 C25 26.37 25 22.74 25 19 C23.68 19 22.36 19 21 19 C21 18.34 21 17.68 21 17 C22.32 17 23.64 17 25 17 C25 13.04 25 9.08 25 5 C12.625 5.495 12.625 5.495 0 6 C-0.33 4.35 -0.66 2.7 -1 1 C-0.67 0.67 -0.34 0.34 0 0 Z " fill="#5588B7" transform="translate(168,503)"/>
<path d="M0 0 C1.74216797 0.05414062 1.74216797 0.05414062 3.51953125 0.109375 C4.39996094 0.15578125 5.28039062 0.2021875 6.1875 0.25 C5.8575 1.24 5.5275 2.23 5.1875 3.25 C5.8475 3.25 6.5075 3.25 7.1875 3.25 C7.1875 4.9 7.1875 6.55 7.1875 8.25 C6.8575 7.26 6.5275 6.27 6.1875 5.25 C3.5475 5.58 0.9075 5.91 -1.8125 6.25 C-1.8125 7.24 -1.8125 8.23 -1.8125 9.25 C0.8275 9.25 3.4675 9.25 6.1875 9.25 C4.8675 11.56 3.5475 13.87 2.1875 16.25 C-2.62065498 16.72138774 -5.76601764 16.95477383 -9.875 14.1875 C-12.31522587 10.48780272 -12.60332445 8.5995345 -11.8125 4.25 C-8.0184743 0.3016886 -5.3789675 -0.21733202 0 0 Z " fill="#265E9C" transform="translate(382.8125,599.75)"/>
<path d="M0 0 C2 1.625 2 1.625 3 4 C3.41865457 8.10281481 3.32579101 9.51131349 1 13 C0.34 13 -0.32 13 -1 13 C-1 14.65 -1 16.3 -1 18 C-3 18 -3 18 -5.375 15.75 C-6.24125 14.8425 -7.1075 13.935 -8 13 C-8.78375 12.360625 -9.5675 11.72125 -10.375 11.0625 C-12 9 -12 9 -11.9375 5.9375 C-9.92886196 -0.35623253 -6.23265293 -1.15563773 0 0 Z " fill="#E8EFF2" transform="translate(225,488)"/>
<path d="M0 0 C2.475 0.495 2.475 0.495 5 1 C4.67 2.32 4.34 3.64 4 5 C-1.445 4.505 -1.445 4.505 -7 4 C-7 8.29 -7 12.58 -7 17 C-4.69 17 -2.38 17 0 17 C0 16.34 0 15.68 0 15 C1.65 15 3.3 15 5 15 C5.625 16.875 5.625 16.875 6 19 C5.34 19.66 4.68 20.32 4 21 C0.25938103 20.65177421 -3.31635888 19.77099465 -7 19 C-7 22.96 -7 26.92 -7 31 C-7.33 31 -7.66 31 -8 31 C-8 27.37 -8 23.74 -8 20 C-11.3 20 -14.6 20 -18 20 C-18 19.01 -18 18.02 -18 17 C-14.7 17 -11.4 17 -8 17 C-8 12.71 -8 8.42 -8 4 C-12.29 4 -16.58 4 -21 4 C-21 3.67 -21 3.34 -21 3 C-10.605 2.505 -10.605 2.505 0 2 C0 1.34 0 0.68 0 0 Z " fill="#5AC2D1" transform="translate(201,459)"/>
<path d="M0 0 C4.39750672 0.50740462 6.86948922 3.08293314 10 6 C10 6.66 10 7.32 10 8 C8.68 7.67 7.36 7.34 6 7 C6.06960938 7.83402344 6.13921875 8.66804688 6.2109375 9.52734375 C6.62200045 18.07158081 5.33671845 22.43173114 0 29 C-0.8353125 30.485 -0.8353125 30.485 -1.6875 32 C-3 34 -3 34 -6 35 C-6 34.34 -6 33.68 -6 33 C-5.34 33 -4.68 33 -4 33 C-4.268125 32.46375 -4.53625 31.9275 -4.8125 31.375 C-5 29 -5 29 -2.75 26.125 C-2.05583984 25.34769531 -2.05583984 25.34769531 -1.34765625 24.5546875 C3.39916248 19.07864735 3.36713343 13.88035238 3 7 C2.34 7 1.68 7 1 7 C0.67 8.65 0.34 10.3 0 12 C-0.66 12 -1.32 12 -2 12 C-1.85904936 10.3745692 -1.71207913 8.74965949 -1.5625 7.125 C-1.48128906 6.22007812 -1.40007812 5.31515625 -1.31640625 4.3828125 C-1 2 -1 2 0 0 Z " fill="#E8F9FA" transform="translate(269,426)"/>
<path d="M0 0 C3 0.4375 3 0.4375 4.875 1.4375 C6.68755546 4.65982082 6.53166222 7.83567565 6 11.4375 C4.9375 13.5 4.9375 13.5 3 14.4375 C-0.5625 14.3125 -0.5625 14.3125 -4 13.4375 C-6.32579101 9.94881349 -6.41865457 8.54031481 -6 4.4375 C-4.41772744 1.09714683 -3.69347195 0.53863133 0 0 Z " fill="#EEF2F4" transform="translate(420,594.5625)"/>
<path d="M0 0 C3.0625 0.3125 3.0625 0.3125 4.9375 1.5 C6.46909584 3.96757108 6.49072025 5.45769831 6.0625 8.3125 C5 10.1875 5 10.1875 3.0625 11.3125 C-0.5625 11.125 -0.5625 11.125 -3.9375 10.3125 C-5.31875018 7.54999964 -5.12829306 5.36518901 -4.9375 2.3125 C-2.9375 0.3125 -2.9375 0.3125 0 0 Z " fill="#2E5B9D" transform="translate(443.9375,604.6875)"/>
<path d="M0 0 C3.625 0.375 3.625 0.375 7 1 C8.33359073 7.42548263 8.33359073 7.42548263 6.875 9.9375 C4.33639987 11.37604008 2.87213496 11.50262362 0 11 C-1.875 9.3125 -1.875 9.3125 -3 7 C-2.75925978 3.62963689 -2.41201979 2.41201979 0 0 Z " fill="#452F7C" transform="translate(731,605)"/>
<path d="M0 0 C6.57692308 0.57692308 6.57692308 0.57692308 8 2 C8.1875 5.4375 8.1875 5.4375 8 9 C6 11 6 11 3 11.25 C0 11 0 11 -2 9 C-2.25 5.5 -2.25 5.5 -2 2 C-1.34 1.34 -0.68 0.68 0 0 Z " fill="#383985" transform="translate(603,605)"/>
<path d="M0 0 C5.94 0 11.88 0 18 0 C18 0.33 18 0.66 18 1 C12.39 1 6.78 1 1 1 C1.020625 2.959375 1.04125 4.91875 1.0625 6.9375 C1.08377188 8.95832876 1.07244053 10.98035801 1 13 C-0.94800707 14.94800707 -4.57713267 14.36409149 -7.25 14.5 C-11.57296476 14.72489412 -15.76983077 15.01623971 -20 16 C-20.33 14.35 -20.66 12.7 -21 11 C-17.25 9.875 -17.25 9.875 -15 11 C-15 11.66 -15 12.32 -15 13 C-14.34 12.67 -13.68 12.34 -13 12 C-10.7927077 11.92907158 -8.58332548 11.91584975 -6.375 11.9375 C-5.18648437 11.94652344 -3.99796875 11.95554687 -2.7734375 11.96484375 C-1.85820312 11.97644531 -0.94296875 11.98804688 0 12 C0 8.04 0 4.08 0 0 Z " fill="#2AC1D3" transform="translate(193,448)"/>
<path d="M0 0 C3.37503669 1.1858237 5.64722731 2.27573689 8 5 C7.67 5.99 7.34 6.98 7 8 C6.34 8 5.68 8 5 8 C4.90203125 8.78503906 4.8040625 9.57007813 4.703125 10.37890625 C3.54525563 18.51393673 1.72286235 23.34358484 -3.1875 29.9375 C-5.47414174 33.80113605 -5.69339117 36.55417204 -6 41 C-6.33 41 -6.66 41 -7 41 C-7.5818139 36.05919944 -8.00868146 31.76389938 -5.4765625 27.3359375 C-3.72535565 25.1415681 -1.8960401 23.06882074 0 21 C1.50156874 17.99686252 1.09281204 15.20932478 1.0625 11.875 C1.05347656 10.59367187 1.04445313 9.31234375 1.03515625 7.9921875 C1.02355469 7.00476563 1.01195312 6.01734375 1 5 C3.475 5.99 3.475 5.99 6 7 C5.195625 6.21625 4.39125 5.4325 3.5625 4.625 C1 2 1 2 0 0 Z " fill="#28C6D6" transform="translate(273,427)"/>
<path d="M0 0 C2.0362449 1.01812245 4.06360955 2.03469612 6.0625 3.125 C8.10136548 4.20579336 8.10136548 4.20579336 11 4 C13.6875 6 13.6875 6 16 8 C15.67 9.98 15.34 11.96 15 14 C13.02 14.33 11.04 14.66 9 15 C9.185625 14.154375 9.37125 13.30875 9.5625 12.4375 C8.86886912 8.19864465 7.85022524 7.75087236 4.5 5.25 C3.6646875 4.67765625 2.829375 4.1053125 1.96875 3.515625 C1.3190625 3.01546875 0.669375 2.5153125 0 2 C0 1.34 0 0.68 0 0 Z " fill="#287EAF" transform="translate(273,479)"/>
<path d="M0 0 C2.33944736 0.28730055 4.6739143 0.61936779 7 1 C7.125 4.375 7.125 4.375 7 8 C6.34 8.66 5.68 9.32 5 10 C2.5 9.8125 2.5 9.8125 0 9 C-2 6 -2 6 -1.6875 3.375 C-1 1 -1 1 0 0 Z " fill="#2480B3" transform="translate(218,490)"/>
<path d="M0 0 C-0.78503906 0.35191406 -1.57007813 0.70382812 -2.37890625 1.06640625 C-8.27859148 3.83889636 -13.02778823 6.42323309 -17.4140625 11.26953125 C-19.06672589 13.07280682 -20.81328502 14.61774611 -22.6875 16.1875 C-25.25597235 18.34524817 -27.67236641 20.57926107 -30 23 C-26.50906491 12.7465205 -17.25001648 5.82171412 -7.984375 0.9375 C-4.73701464 -0.59066958 -3.50112222 -1.16704074 0 0 Z " fill="#2F68AC" transform="translate(673,449)"/>
<path d="M0 0 C6.93 0 13.86 0 21 0 C21 0.33 21 0.66 21 1 C19.02 1 17.04 1 15 1 C14.67 1.99 14.34 2.98 14 4 C10.43528609 5.18823797 7.7441664 5.26274852 4 5 C1.5625 3.625 1.5625 3.625 0 2 C0 1.34 0 0.68 0 0 Z " fill="#D4D1E4" transform="translate(672,604)"/>
<path d="M0 0 C2.56695636 0.39491636 4.67123994 0.83561997 7 2 C7 2.66 7 3.32 7 4 C13.27 4 19.54 4 26 4 C26 7.96 26 11.92 26 16 C25.67 16 25.34 16 25 16 C25 12.37 25 8.74 25 5 C12.625 5.495 12.625 5.495 0 6 C-0.33 4.35 -0.66 2.7 -1 1 C-0.67 0.67 -0.34 0.34 0 0 Z " fill="#BCD4E1" transform="translate(168,503)"/>
<path d="M0 0 C0.66 0.33 1.32 0.66 2 1 C1.34515625 1.36609375 0.6903125 1.7321875 0.015625 2.109375 C-5.8315141 5.57801684 -10.78046487 9.39375137 -15.5625 14.1875 C-16.07458008 14.69829102 -16.58666016 15.20908203 -17.11425781 15.73535156 C-19.61059689 18.30555676 -21.65186824 20.65759049 -23 24 C-23.66 24 -24.32 24 -25 24 C-21.51103689 13.69837735 -11.76640537 6.31034383 -2.625 1.0625 C-1.75875 0.711875 -0.8925 0.36125 0 0 Z " fill="#1C81B8" transform="translate(449,449)"/>
<path d="M0 0 C2.73255991 0.06447056 3.77132266 0.11231558 6.0625 1.6875 C7.0625 3.3125 7.0625 3.3125 7.0625 5.3125 C2.7725 5.3125 -1.5175 5.3125 -5.9375 5.3125 C-5.9375 0.53899579 -4.62043884 0.36670149 0 0 Z " fill="#E7E8F0" transform="translate(543.9375,594.6875)"/>
<path d="M0 0 C0.66 1.65 1.32 3.3 2 5 C-1.63 5 -5.26 5 -9 5 C-9.33 3.68 -9.66 2.36 -10 1 C-6.78548731 -0.60725635 -3.56387464 -0.05748185 0 0 Z " fill="#D9E6F0" transform="translate(387,595)"/>
<path d="M0 0 C1.98 0 3.96 0 6 0 C6 2.64 6 5.28 6 8 C4.02 8 2.04 8 0 8 C0 5.36 0 2.72 0 0 Z " fill="#5CC3D8" transform="translate(173,473)"/>
<path d="M0 0 C1.32 0 2.64 0 4 0 C4 1.65 4 3.3 4 5 C-3.5 6.5 -3.5 6.5 -11 8 C-10.67 7.01 -10.34 6.02 -10 5 C-5.545 4.505 -5.545 4.505 -1 4 C-0.67 2.68 -0.34 1.36 0 0 Z " fill="#CCF0F4" transform="translate(290,443)"/>
<path d="M0 0 C0.66 0 1.32 0 2 0 C2 5.28 2 10.56 2 16 C1.01 16 0.02 16 -1 16 C-1.02685095 13.52076199 -1.04676547 11.0418116 -1.0625 8.5625 C-1.07506836 7.50192383 -1.07506836 7.50192383 -1.08789062 6.41992188 C-1.09653588 4.61306441 -1.05220011 2.80612397 -1 1 C-0.67 0.67 -0.34 0.34 0 0 Z " fill="#BAD5E0" transform="translate(238,489)"/>
<path d="M0 0 C0.7109375 1.71484375 0.7109375 1.71484375 1 4 C-0.3984375 6.25390625 -0.3984375 6.25390625 -2.375 8.5625 C-4.57345398 11.1594785 -5.91571115 12.74713346 -7 16 C-7.99 16.33 -8.98 16.66 -10 17 C-10 16.34 -10 15.68 -10 15 C-9.34 15 -8.68 15 -8 15 C-8.268125 14.46375 -8.53625 13.9275 -8.8125 13.375 C-9 11 -9 11 -6.6875 8 C-5.98753906 7.23623047 -5.98753906 7.23623047 -5.2734375 6.45703125 C-3.80686587 4.77902137 -2.96214884 2.99830914 -2 1 C-1.34 0.67 -0.68 0.34 0 0 Z " fill="#DCF6F7" transform="translate(273,444)"/>
<path d="M0 0 C6.93 0 13.86 0 21 0 C21 0.66 21 1.32 21 2 C19.06833984 1.98259766 19.06833984 1.98259766 17.09765625 1.96484375 C15.41927228 1.9554673 13.74088674 1.94636695 12.0625 1.9375 C11.21236328 1.92912109 10.36222656 1.92074219 9.48632812 1.91210938 C8.67744141 1.90888672 7.86855469 1.90566406 7.03515625 1.90234375 C6.2862915 1.89710693 5.53742676 1.89187012 4.76586914 1.88647461 C2.97332261 1.80658248 2.97332261 1.80658248 2 3 C1.76321284 5.69235776 1.57801975 8.36498156 1.4375 11.0625 C1.39431641 11.82111328 1.35113281 12.57972656 1.30664062 13.36132812 C1.20026367 15.24065438 1.09960066 17.12030244 1 19 C0.67 19 0.34 19 0 19 C0 12.73 0 6.46 0 0 Z " fill="#17C2D6" transform="translate(310,413)"/>
<path d="M0 0 C1.65 0 3.3 0 5 0 C5.625 1.875 5.625 1.875 6 4 C5.34 4.66 4.68 5.32 4 6 C1.3984375 5.7578125 1.3984375 5.7578125 -1.625 5.125 C-2.62789062 4.92132813 -3.63078125 4.71765625 -4.6640625 4.5078125 C-5.43492187 4.34023438 -6.20578125 4.17265625 -7 4 C-7 3.34 -7 2.68 -7 2 C-4.69 2 -2.38 2 0 2 C0 1.34 0 0.68 0 0 Z " fill="#CDDEE8" transform="translate(201,503)"/>
<path d="M0 0 C1.65 0 3.3 0 5 0 C5.625 1.875 5.625 1.875 6 4 C5.34 4.66 4.68 5.32 4 6 C1.3984375 5.7578125 1.3984375 5.7578125 -1.625 5.125 C-2.62789062 4.92132813 -3.63078125 4.71765625 -4.6640625 4.5078125 C-5.43492187 4.34023438 -6.20578125 4.17265625 -7 4 C-7 3.34 -7 2.68 -7 2 C-4.69 2 -2.38 2 0 2 C0 1.34 0 0.68 0 0 Z " fill="#B2DEE8" transform="translate(201,474)"/>
<path d="M0 0 C2.97 0 5.94 0 9 0 C9.33 0.66 9.66 1.32 10 2 C10.66 1.34 11.32 0.68 12 0 C14.125 0.375 14.125 0.375 16 1 C12.93882432 3.62386487 12.26826873 4 8 4 C8 3.01 8 2.02 8 1 C5.69 1 3.38 1 1 1 C1 6.94 1 12.88 1 19 C0.67 19 0.34 19 0 19 C0 12.73 0 6.46 0 0 Z " fill="#356AA7" transform="translate(405,588)"/>
<path d="M0 0 C2.9375 0.1875 2.9375 0.1875 6 1 C6.66 2.32 7.32 3.64 8 5 C4.37 5 0.74 5 -3 5 C-1 1 -1 1 0 0 Z " fill="#F2F1F5" transform="translate(676,594)"/>
<path d="M0 0 C1.98 0 3.96 0 6 0 C6 2.31 6 4.62 6 7 C4.02 7 2.04 7 0 7 C0 4.69 0 2.38 0 0 Z " fill="#4D90BD" transform="translate(173,532)"/>
<path d="M0 0 C0.99 0.495 0.99 0.495 2 1 C2 1.66 2 2.32 2 3 C2.66 3 3.32 3 4 3 C4.33 2.34 4.66 1.68 5 1 C6.65 1.99 8.3 2.98 10 4 C9.67 6.31 9.34 8.62 9 11 C7.02 11 5.04 11 3 11 C6 9 6 9 8 8 C8 7.34 8 6.68 8 6 C6.02 6.33 4.04 6.66 2 7 C1.34 4.69 0.68 2.38 0 0 Z " fill="#2F7EB5" transform="translate(265,494)"/>
<path d="M0 0 C4.62 0 9.24 0 14 0 C14 0.99 14 1.98 14 3 C9.38 3 4.76 3 0 3 C0 2.01 0 1.02 0 0 Z " fill="#BBE7EF" transform="translate(280,458)"/>
<path d="M0 0 C2.05078125 0.03255208 4.1015625 0.06510417 6.15234375 0.09765625 C5.27734375 3.97265625 5.27734375 3.97265625 4.15234375 5.09765625 C2.15276011 5.13846408 0.15189121 5.14019981 -1.84765625 5.09765625 C-2.41015625 3.16015625 -2.41015625 3.16015625 -2.84765625 1.09765625 C-1.84765625 0.09765625 -1.84765625 0.09765625 0 0 Z " fill="#E2EDF4" transform="translate(382.84765625,604.90234375)"/>
<path d="M0 0 C1.65 0 3.3 0 5 0 C5.33 1.32 5.66 2.64 6 4 C1.74936599 5.15926382 -1.70057734 4.90949326 -6 4 C-6.33 3.34 -6.66 2.68 -7 2 C-4.69 2 -2.38 2 0 2 C0 1.34 0 0.68 0 0 Z " fill="#C6E0EA" transform="translate(201,489)"/>
<path d="M0 0 C0.33 0.99 0.66 1.98 1 3 C-0.83234098 6.59681748 -2.7771446 9.70073704 -5.1875 12.9375 C-7.47414174 16.80113605 -7.69339117 19.55417204 -8 24 C-8.33 24 -8.66 24 -9 24 C-9.57583377 19.10998305 -10.02570993 14.78758895 -7.51171875 10.40625 C-6.29320339 8.89256633 -5.03316348 7.41099272 -3.7265625 5.97265625 C-2.05191366 4.05931312 -1.02473878 2.31342543 0 0 Z " fill="#27B4CB" transform="translate(275,444)"/>
<path d="M0 0 C1.65 0 3.3 0 5 0 C5.625 1.875 5.625 1.875 6 4 C5.34 4.66 4.68 5.32 4 6 C1.875 5.625 1.875 5.625 0 5 C0 4.34 0 3.68 0 3 C-2.31 3 -4.62 3 -7 3 C-7 2.67 -7 2.34 -7 2 C-4.69 2 -2.38 2 0 2 C0 1.34 0 0.68 0 0 Z " fill="#E1E9F0" transform="translate(201,532)"/>
<path d="M0 0 C2.31 0 4.62 0 7 0 C7 1.32 7 2.64 7 4 C4.29120665 5.35439668 1.99066732 5.06501451 -1 5 C-0.67 3.35 -0.34 1.7 0 0 Z " fill="#F4F5F8" transform="translate(543,605)"/>
<path d="M0 0 C1.32 0 2.64 0 4 0 C3.67 3.96 3.34 7.92 3 12 C2.34 12 1.68 12 1 12 C1 9.36 1 6.72 1 4 C0.34 4 -0.32 4 -1 4 C-0.67 2.68 -0.34 1.36 0 0 Z " fill="#CADDE7" transform="translate(250,489)"/>
<path d="M0 0 C1.65 0 3.3 0 5 0 C5.33 1.32 5.66 2.64 6 4 C4.34385343 4.38218767 2.67542976 4.71395102 1 5 C0.67 4.67 0.34 4.34 0 4 C-2.32817964 3.63239269 -4.6618385 3.29758419 -7 3 C-7 2.67 -7 2.34 -7 2 C-4.69 2 -2.38 2 0 2 C0 1.34 0 0.68 0 0 Z " fill="#DEE6EE" transform="translate(201,518)"/>
<path d="M0 0 C0.33 0.66 0.66 1.32 1 2 C-0.8125 5 -0.8125 5 -3 8 C-3.99 8 -4.98 8 -6 8 C-8.1875 5 -8.1875 5 -10 2 C-8.68 2 -7.36 2 -6 2 C-5.67 3.32 -5.34 4.64 -5 6 C-4.34 6 -3.68 6 -3 6 C-2.690625 5.195625 -2.38125 4.39125 -2.0625 3.5625 C-1 1 -1 1 0 0 Z " fill="#19B4CD" transform="translate(270,445)"/>
<path d="M0 0 C1.65 0.33 3.3 0.66 5 1 C4.67 2.65 4.34 4.3 4 6 C2.35 5.67 0.7 5.34 -1 5 C-0.67 3.35 -0.34 1.7 0 0 Z " fill="#3E9DC8" transform="translate(168,503)"/>
<path d="M0 0 C1.65 0.33 3.3 0.66 5 1 C5 1.66 5 2.32 5 3 C5.66 3.33 6.32 3.66 7 4 C4.64561267 5.42944945 3.51967567 6.08661261 0.75 5.625 C0.1725 5.41875 -0.405 5.2125 -1 5 C-0.67 3.35 -0.34 1.7 0 0 Z " fill="#33D4DE" transform="translate(173,458)"/>
<path d="M0 0 C1.65 0 3.3 0 5 0 C5 1.98 5 3.96 5 6 C3.35 6 1.7 6 0 6 C0 4.02 0 2.04 0 0 Z " fill="#4987B6" transform="translate(181,518)"/>
<path d="M0 0 C4.38889325 0.66498383 7.9811485 2.18757677 12 4 C12 4.66 12 5.32 12 6 C10.1838018 5.57811541 8.37205927 5.13700835 6.5625 4.6875 C5.55316406 4.44386719 4.54382813 4.20023437 3.50390625 3.94921875 C2.26447266 3.47935547 2.26447266 3.47935547 1 3 C0.67 2.01 0.34 1.02 0 0 Z " fill="#E1F1F3" transform="translate(279,469)"/>
<path d="M0 0 C1.04293785 3.38954801 1.30754089 6.46327974 1 10 C0.01 10.66 -0.98 11.32 -2 12 C-2.33 12.99 -2.66 13.98 -3 15 C-3.66 15 -4.32 15 -5 15 C-1.92482916 4.44191344 -1.92482916 4.44191344 0 0 Z " fill="#4D5999" transform="translate(856,457)"/>
<path d="M0 0 C1.65 0.33 3.3 0.66 5 1 C4.67 2.32 4.34 3.64 4 5 C0.37 4.34 -3.26 3.68 -7 3 C-7 2.67 -7 2.34 -7 2 C-4.69 2 -2.38 2 0 2 C0 1.34 0 0.68 0 0 Z " fill="#DEF4F7" transform="translate(201,459)"/>
<path d="M0 0 C-1 2 -1 2 -4.375 3.4375 C-7.43357217 4.75585007 -8.96872183 5.49077403 -11 8 C-11.66 7.67 -12.32 7.34 -13 7 C-5.875 -0.31756757 -5.875 -0.31756757 0 0 Z " fill="#406AA5" transform="translate(516,588)"/>
<path d="M0 0 C0.66 0 1.32 0 2 0 C2.22162329 1.62324086 2.42689803 3.248721 2.625 4.875 C2.74101562 5.77992188 2.85703125 6.68484375 2.9765625 7.6171875 C2.98429687 8.40351563 2.99203125 9.18984375 3 10 C2.34 10.66 1.68 11.32 1 12 C0.67 10.02 0.34 8.04 0 6 C-0.99 5.67 -1.98 5.34 -3 5 C-2.34 5 -1.68 5 -1 5 C-0.67 3.35 -0.34 1.7 0 0 Z " fill="#28CAD7" transform="translate(270,433)"/>
<path d="M0 0 C3.875 1.75 3.875 1.75 5 4 C5.039992 5.99960012 5.04346799 8.00047242 5 10 C4.01 9.67 3.02 9.34 2 9 C2 7.02 2 5.04 2 3 C1.34 3 0.68 3 0 3 C0 2.01 0 1.02 0 0 Z " fill="#DAE7EF" transform="translate(223,488)"/>
<path d="M0 0 C2.475 0.495 2.475 0.495 5 1 C4.67 2.65 4.34 4.3 4 6 C2.68 5.67 1.36 5.34 0 5 C0 3.35 0 1.7 0 0 Z " fill="#29A4D2" transform="translate(160,489)"/>
<path d="M0 0 C2.475 0.495 2.475 0.495 5 1 C4.67 2.65 4.34 4.3 4 6 C2.68 5.67 1.36 5.34 0 5 C0 3.35 0 1.7 0 0 Z " fill="#25C7DD" transform="translate(255,461)"/>
<path d="M0 0 C3.94139078 1.66751148 6.7892812 4.22710649 10 7 C9.01 7.495 9.01 7.495 8 8 C6.66102417 7.04956626 5.32894573 6.08940853 4 5.125 C3.2575 4.59132813 2.515 4.05765625 1.75 3.5078125 C1.1725 3.01023437 0.595 2.51265625 0 2 C0 1.34 0 0.68 0 0 Z " fill="#E4EEF4" transform="translate(273,479)"/>
<path d="M0 0 C0.99 0.33 1.98 0.66 3 1 C3.94921875 3.06640625 3.94921875 3.06640625 4.6875 5.5625 C4.93886719 6.38878906 5.19023437 7.21507812 5.44921875 8.06640625 C5.63097656 8.70449219 5.81273437 9.34257812 6 10 C5.34 10 4.68 10 4 10 C3.32845067 8.71086513 2.66291141 7.41859796 2 6.125 C1.62875 5.40570313 1.2575 4.68640625 0.875 3.9453125 C0 2 0 2 0 0 Z " fill="#E8F2F7" transform="translate(263,487)"/>
<path d="M0 0 C-0.33 0.99 -0.66 1.98 -1 3 C-2.65 3.33 -4.3 3.66 -6 4 C-6 2.68 -6 1.36 -6 0 C-3 -1 -3 -1 0 0 Z " fill="#E1EBF2" transform="translate(274,500)"/>
<path d="M0 0 C0.33 1.32 0.66 2.64 1 4 C0.34 3.34 -0.32 2.68 -1 2 C-3.57061311 1.35232207 -3.57061311 1.35232207 -6 1 C-6 1.66 -6 2.32 -6 3 C-7.98 3 -9.96 3 -12 3 C-8.2391768 -0.7608232 -5.0273023 -0.25136512 0 0 Z " fill="#3168A7" transform="translate(207,531)"/>
<path d="M0 0 C1.23556641 0.01740234 1.23556641 0.01740234 2.49609375 0.03515625 C3.32238281 0.04417969 4.14867187 0.05320312 5 0.0625 C5.63808594 0.07410156 6.27617187 0.08570313 6.93359375 0.09765625 C6.93359375 0.42765625 6.93359375 0.75765625 6.93359375 1.09765625 C4.29359375 1.42765625 1.65359375 1.75765625 -1.06640625 2.09765625 C-1.06640625 3.08765625 -1.06640625 4.07765625 -1.06640625 5.09765625 C-2.05640625 5.09765625 -3.04640625 5.09765625 -4.06640625 5.09765625 C-2.94676868 0.13926128 -2.94676868 0.13926128 0 0 Z " fill="#DAE0EB" transform="translate(482.06640625,586.90234375)"/>
<path d="M0 0 C2.31 0 4.62 0 7 0 C6.67 0.99 6.34 1.98 6 3 C4.35 3 2.7 3 1 3 C0.67 2.01 0.34 1.02 0 0 Z " fill="#E0ECF1" transform="translate(249,503)"/>
<path d="M0 0 C2.475 0.495 2.475 0.495 5 1 C5.33 1.99 5.66 2.98 6 4 C4.68 4.33 3.36 4.66 2 5 C1.34 3.35 0.68 1.7 0 0 Z " fill="#2A7BAB" transform="translate(373,592)"/>
<path d="M0 0 C0.33 0.66 0.66 1.32 1 2 C1.99 2 2.98 2 4 2 C4 2.66 4 3.32 4 4 C2.68 4.33 1.36 4.66 0 5 C0 4.34 0 3.68 0 3 C-2.31 3 -4.62 3 -7 3 C-7 2.67 -7 2.34 -7 2 C-4.69 2 -2.38 2 0 2 C0 1.34 0 0.68 0 0 Z " fill="#BFD2E4" transform="translate(201,532)"/>
<path d="M0 0 C1.32 0.33 2.64 0.66 4 1 C4 2.32 4 3.64 4 5 C2.68 4.67 1.36 4.34 0 4 C0 2.68 0 1.36 0 0 Z " fill="#E6ECF0" transform="translate(220,528)"/>
<path d="M0 0 C2.64 1.98 5.28 3.96 8 6 C7.01 6.495 7.01 6.495 6 7 C3.4375 5.8125 3.4375 5.8125 1 4 C0.67 2.68 0.34 1.36 0 0 Z " fill="#2F86B7" transform="translate(213,497)"/>
<path d="M0 0 C1.32 0 2.64 0 4 0 C4 1.32 4 2.64 4 4 C2.35 3.67 0.7 3.34 -1 3 C-0.67 2.01 -0.34 1.02 0 0 Z " fill="#E5F2F4" transform="translate(217,468)"/>
<path d="M0 0 C0.99 0 1.98 0 3 0 C3 1.98 3 3.96 3 6 C2.01 6 1.02 6 0 6 C0 4.02 0 2.04 0 0 Z " fill="#EDF7FA" transform="translate(296,456)"/>
<path d="M0 0 C1.32 0 2.64 0 4 0 C3.67 1.32 3.34 2.64 3 4 C1.68 3.67 0.36 3.34 -1 3 C-0.67 2.01 -0.34 1.02 0 0 Z " fill="#E5EAEE" transform="translate(221,516)"/>
<path d="M0 0 C-0.33 1.32 -0.66 2.64 -1 4 C-2.32 4.33 -3.64 4.66 -5 5 C-4.625 3.0625 -4.625 3.0625 -4 1 C-2 0 -2 0 0 0 Z " fill="#B5D2E4" transform="translate(207,504)"/>
<path d="M0 0 C0.99 0.33 1.98 0.66 3 1 C2.67 2.32 2.34 3.64 2 5 C0.68 4.67 -0.64 4.34 -2 4 C-2 3.34 -2 2.68 -2 2 C-1.34 2 -0.68 2 0 2 C0 1.34 0 0.68 0 0 Z " fill="#CFE2EA" transform="translate(285,487)"/>
<path d="M0 0 C1.65 0 3.3 0 5 0 C5.33 1.32 5.66 2.64 6 4 C5.34 4 4.68 4 4 4 C4 3.34 4 2.68 4 2 C2.35 2.33 0.7 2.66 -1 3 C-0.67 2.01 -0.34 1.02 0 0 Z " fill="#EDF8FB" transform="translate(201,474)"/>
<path d="M0 0 C0.99 0 1.98 0 3 0 C2.67 1.65 2.34 3.3 2 5 C1.01 5 0.02 5 -1 5 C-0.67 3.35 -0.34 1.7 0 0 Z " fill="#E9F4F6" transform="translate(293,472)"/>
</svg>
